<svg width="32" height="33" viewBox="0 0 32 33" fill="none" xmlns="http://www.w3.org/2000/svg">
<path d="M6.11121 23.2896C4.73755 21.8315 4 20.1948 4 17.542C4 12.876 7.27535 8.6931 12.0408 6.62579L13.231 8.46261C8.78405 10.8687 7.91491 13.9896 7.56752 15.9576C8.28351 15.5873 9.22077 15.4571 10.1396 15.5423C12.5454 15.7652 14.4416 17.7403 14.4416 20.1948C14.4416 22.7721 12.3522 24.8615 9.77488 24.8615C8.34413 24.8615 6.97595 24.2076 6.11121 23.2896ZM19.4445 23.2896C18.0709 21.8315 17.3333 20.1948 17.3333 17.542C17.3333 12.876 20.6087 8.6931 25.3741 6.62579L26.5644 8.46261C22.1173 10.8687 21.2483 13.9896 20.9008 15.9576C21.6168 15.5873 22.5541 15.4571 23.4729 15.5423C25.8788 15.7652 27.7749 17.7403 27.7749 20.1948C27.7749 22.7721 25.6856 24.8615 23.1083 24.8615C21.6775 24.8615 20.3093 24.2076 19.4445 23.2896Z" fill="#5A4635"/>
</svg>
