<svg width="49" height="49" viewBox="0 0 49 49" fill="none" xmlns="http://www.w3.org/2000/svg">
<path d="M24.4223 42.3833C21.971 42.3833 19.657 41.9096 17.4803 40.9623C15.3033 40.0146 13.4027 38.7286 11.7783 37.1043C10.154 35.48 8.868 33.573 7.92033 31.3833C6.973 29.1936 6.49933 26.8603 6.49933 24.3833C6.49933 21.873 6.98333 19.523 7.95133 17.3333C8.91933 15.1436 10.2385 13.2385 11.9088 11.6178C13.5795 9.99747 15.5392 8.71997 17.7878 7.7853C20.0365 6.85063 22.4327 6.3833 24.9763 6.3833C27.3097 6.3833 29.5315 6.77747 31.6418 7.5658C33.7518 8.35447 35.6088 9.44814 37.2128 10.8468C38.8165 12.2455 40.0985 13.9121 41.0588 15.8468C42.0192 17.7815 42.4993 19.8911 42.4993 22.1758C42.4993 25.2655 41.6083 27.7391 39.8263 29.5968C38.0443 31.4545 35.602 32.3833 32.4993 32.3833H28.9533C28.1147 32.3833 27.4127 32.6718 26.8473 33.2488C26.282 33.8258 25.9993 34.522 25.9993 35.3373C25.9993 36.173 26.2493 36.8825 26.7493 37.4658C27.2493 38.0491 27.4993 38.7216 27.4993 39.4833C27.4993 40.4576 27.2268 41.1846 26.6818 41.6643C26.1372 42.1436 25.384 42.3833 24.4223 42.3833ZM13.4993 25.3833C14.0583 25.3833 14.5313 25.1896 14.9183 24.8023C15.3057 24.4153 15.4993 23.9423 15.4993 23.3833C15.4993 22.8243 15.3057 22.3513 14.9183 21.9643C14.5313 21.577 14.0583 21.3833 13.4993 21.3833C12.9403 21.3833 12.4673 21.577 12.0803 21.9643C11.693 22.3513 11.4993 22.8243 11.4993 23.3833C11.4993 23.9423 11.693 24.4153 12.0803 24.8023C12.4673 25.1896 12.9403 25.3833 13.4993 25.3833ZM19.4993 17.3833C20.0583 17.3833 20.5313 17.1896 20.9183 16.8023C21.3057 16.4153 21.4993 15.9423 21.4993 15.3833C21.4993 14.8243 21.3057 14.3513 20.9183 13.9643C20.5313 13.577 20.0583 13.3833 19.4993 13.3833C18.9403 13.3833 18.4673 13.577 18.0803 13.9643C17.693 14.3513 17.4993 14.8243 17.4993 15.3833C17.4993 15.9423 17.693 16.4153 18.0803 16.8023C18.4673 17.1896 18.9403 17.3833 19.4993 17.3833ZM29.4993 17.3833C30.0583 17.3833 30.5313 17.1896 30.9183 16.8023C31.3057 16.4153 31.4993 15.9423 31.4993 15.3833C31.4993 14.8243 31.3057 14.3513 30.9183 13.9643C30.5313 13.577 30.0583 13.3833 29.4993 13.3833C28.9403 13.3833 28.4673 13.577 28.0803 13.9643C27.693 14.3513 27.4993 14.8243 27.4993 15.3833C27.4993 15.9423 27.693 16.4153 28.0803 16.8023C28.4673 17.1896 28.9403 17.3833 29.4993 17.3833ZM35.4993 25.3833C36.0583 25.3833 36.5313 25.1896 36.9183 24.8023C37.3057 24.4153 37.4993 23.9423 37.4993 23.3833C37.4993 22.8243 37.3057 22.3513 36.9183 21.9643C36.5313 21.577 36.0583 21.3833 35.4993 21.3833C34.9403 21.3833 34.4673 21.577 34.0803 21.9643C33.693 22.3513 33.4993 22.8243 33.4993 23.3833C33.4993 23.9423 33.693 24.4153 34.0803 24.8023C34.4673 25.1896 34.9403 25.3833 35.4993 25.3833ZM24.4223 40.3833C24.7737 40.3833 25.041 40.3063 25.2243 40.1523C25.4077 39.9986 25.4993 39.7756 25.4993 39.4833C25.4993 39.0166 25.2493 38.518 24.7493 37.9873C24.2493 37.4563 23.9993 36.5831 23.9993 35.3678C23.9993 33.9165 24.4827 32.723 25.4493 31.7873C26.416 30.8513 27.5993 30.3833 28.9993 30.3833H32.4993C35.007 30.3833 36.9673 29.6455 38.3803 28.1698C39.793 26.6941 40.4993 24.6961 40.4993 22.1758C40.4993 18.1168 38.9385 14.8033 35.8168 12.2353C32.6948 9.6673 29.0813 8.3833 24.9763 8.3833C20.366 8.3833 16.4673 9.9333 13.2803 13.0333C10.093 16.1333 8.49933 19.9166 8.49933 24.3833C8.49933 28.8166 10.0577 32.5916 13.1743 35.7083C16.291 38.825 20.0403 40.3833 24.4223 40.3833Z" fill="#003EFF"/>
</svg>
