<svg width="48" height="49" viewBox="0 0 48 49" fill="none" xmlns="http://www.w3.org/2000/svg">
<path d="M13.4942 32.0258V38.5643C13.4942 38.8476 13.3982 39.0851 13.2062 39.2768C13.0145 39.4685 12.7768 39.5643 12.4932 39.5643C12.2092 39.5643 11.9717 39.4685 11.7807 39.2768C11.5897 39.0851 11.4942 38.8476 11.4942 38.5643V32.0258H8.60967C8.32634 32.0258 8.08884 31.9298 7.89717 31.7378C7.70551 31.5461 7.60967 31.3083 7.60967 31.0243C7.60967 30.7406 7.70551 30.5033 7.89717 30.3123C8.08884 30.1213 8.32634 30.0258 8.60967 30.0258H11.4942V19.4568L6.10967 23.4683C5.87367 23.622 5.63001 23.6866 5.37867 23.6623C5.12767 23.638 4.91234 23.5078 4.73267 23.2718C4.55334 23.0361 4.47767 22.7926 4.50567 22.5413C4.53401 22.29 4.66617 22.0746 4.90217 21.8953L22.1597 8.9913C22.4493 8.77597 22.7603 8.6208 23.0927 8.5258C23.425 8.4308 23.764 8.3833 24.1097 8.3833C24.4553 8.3833 24.7943 8.4308 25.1267 8.5258C25.459 8.6208 25.77 8.77597 26.0597 8.9913L43.3557 21.8953C43.584 22.0746 43.7142 22.29 43.7462 22.5413C43.7782 22.7926 43.7045 23.0361 43.5252 23.2718C43.3455 23.5078 43.13 23.638 42.8787 23.6623C42.6277 23.6866 42.3842 23.622 42.1482 23.4683L36.7637 19.4568V30.0258H39.6097C39.893 30.0258 40.1305 30.1218 40.3222 30.3138C40.5138 30.5058 40.6097 30.7436 40.6097 31.0273C40.6097 31.311 40.5138 31.5483 40.3222 31.7393C40.1305 31.9303 39.893 32.0258 39.6097 32.0258H36.7637V38.5643C36.7637 38.8476 36.6677 39.0851 36.4757 39.2768C36.2837 39.4685 36.0458 39.5643 35.7622 39.5643C35.4785 39.5643 35.2412 39.4685 35.0502 39.2768C34.8592 39.0851 34.7637 38.8476 34.7637 38.5643V32.0258H25.1097V38.5643C25.1097 38.8476 25.0137 39.0851 24.8217 39.2768C24.6297 39.4685 24.3918 39.5643 24.1082 39.5643C23.8245 39.5643 23.5872 39.4685 23.3962 39.2768C23.2052 39.0851 23.1097 38.8476 23.1097 38.5643V32.0258H13.4942ZM13.4942 30.0258H23.1097V10.8068L13.4942 17.9833V30.0258ZM25.1097 30.0258H34.7637V17.9833L25.1097 10.8068V30.0258Z" fill="#003EFF"/>
</svg>
