<svg width="48" height="49" viewBox="0 0 48 49" fill="none" xmlns="http://www.w3.org/2000/svg">
<path d="M21.3927 25.7988L16.4157 39.5448C16.3823 39.6191 16.299 39.723 16.1657 39.8563L15.5272 40.4448C15.3552 40.5911 15.1802 40.6276 15.0022 40.5543C14.8238 40.4813 14.7142 40.3601 14.6732 40.1908L14.5117 39.3488C14.486 39.2975 14.5027 39.1603 14.5617 38.9373L19.6617 24.8988C19.931 25.1345 20.2098 25.321 20.4982 25.4583C20.7868 25.5956 21.085 25.7091 21.3927 25.7988ZM24.5002 22.3833C23.1155 22.3833 21.936 21.8961 20.9617 20.9218C19.9873 19.9475 19.5002 18.768 19.5002 17.3833C19.5002 16.0833 19.9072 14.9955 20.7212 14.1198C21.5355 13.2441 22.4618 12.7216 23.5002 12.5523V8.3833C23.5002 8.09863 23.5957 7.8608 23.7867 7.6698C23.9777 7.4788 24.2155 7.3833 24.5002 7.3833C24.7848 7.3833 25.0227 7.4788 25.2137 7.6698C25.4047 7.8608 25.5002 8.09863 25.5002 8.3833V12.5523C26.5385 12.7216 27.4648 13.2441 28.2792 14.1198C29.0932 14.9955 29.5002 16.0833 29.5002 17.3833C29.5002 18.768 29.013 19.9475 28.0387 20.9218C27.0643 21.8961 25.8848 22.3833 24.5002 22.3833ZM24.5002 20.3833C25.3232 20.3833 26.029 20.0891 26.6177 19.5008C27.206 18.9121 27.5002 18.2063 27.5002 17.3833C27.5002 16.5603 27.206 15.8545 26.6177 15.2658C26.029 14.6775 25.3232 14.3833 24.5002 14.3833C23.6772 14.3833 22.9713 14.6775 22.3827 15.2658C21.7943 15.8545 21.5002 16.5603 21.5002 17.3833C21.5002 18.2063 21.7943 18.9121 22.3827 19.5008C22.9713 20.0891 23.6772 20.3833 24.5002 20.3833ZM27.6077 25.7988C27.9153 25.7091 28.2135 25.5956 28.5022 25.4583C28.7905 25.321 29.0565 25.1345 29.3002 24.8988L34.4002 38.9373C34.4078 38.9603 34.4245 39.0975 34.4502 39.3488L34.2887 40.1908C34.2477 40.3601 34.138 40.4813 33.9597 40.5543C33.7817 40.6276 33.6067 40.5911 33.4347 40.4448L32.7962 39.8563L32.5462 39.5448L27.6077 25.7988Z" fill="#003EFF"/>
</svg>
