<svg width="49" height="49" viewBox="0 0 49 49" fill="none" xmlns="http://www.w3.org/2000/svg">
<path d="M23.0392 37.9948C22.9108 36.9975 22.6077 36.1173 22.1297 35.3543C21.6513 34.5916 21.1468 33.8533 20.6162 33.1393C20.0852 32.425 19.6127 31.6903 19.1987 30.9353C18.7847 30.1803 18.5777 29.3283 18.5777 28.3793C18.5777 26.754 19.1583 25.3605 20.3197 24.1988C21.4813 23.0371 22.875 22.4563 24.5007 22.4563C26.1263 22.4563 27.52 23.0371 28.6817 24.1988C29.843 25.3605 30.4237 26.754 30.4237 28.3793C30.4237 29.3283 30.2167 30.174 29.8027 30.9163C29.3887 31.6583 28.9162 32.3928 28.3852 33.1198C27.8545 33.8468 27.35 34.5916 26.8717 35.3543C26.3937 36.1173 26.0905 36.9975 25.9622 37.9948H23.0392ZM24.5007 42.9948C24.1133 42.9948 23.7858 42.8608 23.5182 42.5928C23.2502 42.3251 23.1162 41.9976 23.1162 41.6103V40.7643H25.8852V41.6103C25.8852 41.9976 25.7512 42.3251 25.4832 42.5928C25.2155 42.8608 24.888 42.9948 24.5007 42.9948ZM37.2697 36.9563C37.098 36.7846 37 36.5873 36.9757 36.3643C36.9513 36.141 37.0083 35.923 37.1467 35.7103C37.898 34.559 38.4782 33.2903 38.8872 31.9043C39.2962 30.5186 39.5007 29.0873 39.5007 27.6103C39.5007 25.6486 39.15 23.8018 38.4487 22.0698C37.7473 20.3378 36.775 18.7871 35.5317 17.4178C35.3443 17.1898 35.2423 16.952 35.2257 16.7043C35.209 16.457 35.311 16.2231 35.5317 16.0028C35.7263 15.8078 35.9597 15.704 36.2317 15.6913C36.5033 15.6783 36.7327 15.7821 36.9197 16.0028C38.343 17.5258 39.4623 19.2731 40.2777 21.2448C41.093 23.2168 41.5007 25.3386 41.5007 27.6103C41.5007 29.3333 41.2698 30.975 40.8082 32.5353C40.3468 34.0956 39.679 35.5373 38.8047 36.8603C38.6173 37.1193 38.3737 37.259 38.0737 37.2793C37.7737 37.3 37.5057 37.1923 37.2697 36.9563ZM10.1967 36.8603C9.32234 35.5373 8.65451 34.0956 8.19317 32.5353C7.73151 30.975 7.50067 29.3333 7.50067 27.6103C7.50067 22.8666 9.14817 18.8475 12.4432 15.5528C15.7378 12.2578 19.757 10.6103 24.5007 10.6103H27.3237L23.7547 7.0793C23.5673 6.8923 23.4737 6.65647 23.4737 6.3718C23.4737 6.08713 23.5673 5.8513 23.7547 5.6643C23.9417 5.47697 24.1775 5.3833 24.4622 5.3833C24.7468 5.3833 24.9827 5.47697 25.1697 5.6643L29.9467 10.4793C30.121 10.654 30.2435 10.8323 30.3142 11.0143C30.3845 11.1963 30.4197 11.395 30.4197 11.6103C30.4197 11.8256 30.3845 12.0243 30.3142 12.2063C30.2435 12.3883 30.121 12.5666 29.9467 12.7413L25.1697 17.5178C24.9493 17.7385 24.7135 17.8468 24.4622 17.8428C24.2108 17.8391 23.975 17.727 23.7547 17.5063C23.534 17.286 23.4237 17.0481 23.4237 16.7928C23.4237 16.5378 23.534 16.3 23.7547 16.0793L27.2237 12.6103H24.5007C20.352 12.6103 16.8148 14.0731 13.8892 16.9988C10.9635 19.9245 9.50067 23.4616 9.50067 27.6103C9.50067 29.0873 9.70517 30.5186 10.1142 31.9043C10.5232 33.2903 11.1033 34.559 11.8547 35.7103C11.993 35.923 12.05 36.141 12.0257 36.3643C12.0013 36.5873 11.9033 36.7846 11.7317 36.9563C11.4957 37.1923 11.2277 37.3 10.9277 37.2793C10.6277 37.259 10.384 37.1193 10.1967 36.8603Z" fill="#003EFF"/>
</svg>
