<svg width="49" height="49" viewBox="0 0 49 49" fill="none" xmlns="http://www.w3.org/2000/svg">
<path d="M9.73033 40.9678C8.80966 40.9678 8.041 40.6595 7.42433 40.0428C6.80766 39.4261 6.49933 38.6575 6.49933 37.7368V16.1988C6.49933 15.2781 6.80766 14.5095 7.42433 13.8928C8.041 13.2761 8.80966 12.9678 9.73033 12.9678H18.2683L23.3683 7.8678C23.6917 7.5448 24.0687 7.3833 24.4993 7.3833C24.93 7.3833 25.307 7.5448 25.6303 7.8678L30.7303 12.9678H39.2683C40.189 12.9678 40.9577 13.2761 41.5743 13.8928C42.191 14.5095 42.4993 15.2781 42.4993 16.1988V37.7368C42.4993 38.6575 42.191 39.4261 41.5743 40.0428C40.9577 40.6595 40.189 40.9678 39.2683 40.9678H9.73033ZM9.73033 38.9678H39.2683C39.5763 38.9678 39.8585 38.8396 40.1148 38.5833C40.3712 38.327 40.4993 38.0448 40.4993 37.7368V16.1988C40.4993 15.8908 40.3712 15.6086 40.1148 15.3523C39.8585 15.096 39.5763 14.9678 39.2683 14.9678H9.73033C9.42233 14.9678 9.14016 15.096 8.88383 15.3523C8.6275 15.6086 8.49933 15.8908 8.49933 16.1988V37.7368C8.49933 38.0448 8.6275 38.327 8.88383 38.5833C9.14016 38.8396 9.42233 38.9678 9.73033 38.9678ZM22.9223 33.0448L20.0683 29.5948C19.894 29.4051 19.6852 29.3103 19.4418 29.3103C19.1982 29.3103 18.9892 29.418 18.8148 29.6333L16.5068 32.6753C16.2915 32.9576 16.2582 33.2436 16.4068 33.5333C16.5558 33.823 16.7918 33.9678 17.1148 33.9678H32.1918C32.5148 33.9678 32.7507 33.823 32.8993 33.5333C33.048 33.2436 33.0275 32.9576 32.8378 32.6753L28.7993 27.2488C28.625 27.0331 28.4097 26.9253 28.1533 26.9253C27.8967 26.9253 27.6812 27.0331 27.5068 27.2488L22.9223 33.0448ZM34.3453 24.9678C34.9737 24.9678 35.5025 24.7531 35.9318 24.3238C36.3615 23.8941 36.5763 23.3651 36.5763 22.7368C36.5763 22.1088 36.3615 21.58 35.9318 21.1503C35.5025 20.721 34.9737 20.5063 34.3453 20.5063C33.7173 20.5063 33.1885 20.721 32.7588 21.1503C32.3295 21.58 32.1148 22.1088 32.1148 22.7368C32.1148 23.3651 32.3295 23.8941 32.7588 24.3238C33.1885 24.7531 33.7173 24.9678 34.3453 24.9678ZM20.7763 12.9678H28.2223L24.4993 9.2448L20.7763 12.9678Z" fill="#003EFF"/>
</svg>
