<svg width="49" height="49" viewBox="0 0 49 49" fill="none" xmlns="http://www.w3.org/2000/svg">
<path d="M24.5007 38.7683C22.788 38.7683 21.3342 38.1708 20.1392 36.9758C18.9442 35.7808 18.3467 34.327 18.3467 32.6143H10.5007C9.95067 32.6143 9.47984 32.4185 9.08817 32.0268C8.6965 31.6351 8.50067 31.1643 8.50067 30.6143C8.50067 26.435 9.94434 22.7881 12.8317 19.6738C15.7187 16.5598 19.275 14.881 23.5007 14.6373V10.3833C23.5007 10.1 23.5967 9.86247 23.7887 9.6708C23.9807 9.47913 24.2185 9.3833 24.5022 9.3833C24.7858 9.3833 25.0232 9.47913 25.2142 9.6708C25.4052 9.86247 25.5007 10.1 25.5007 10.3833V14.6373C29.7263 14.881 33.2827 16.5598 36.1697 19.6738C39.057 22.7881 40.5007 26.435 40.5007 30.6143C40.5007 31.1643 40.3048 31.6351 39.9132 32.0268C39.5215 32.4185 39.0507 32.6143 38.5007 32.6143H30.6547C30.6547 34.327 30.0572 35.7808 28.8622 36.9758C27.6672 38.1708 26.2133 38.7683 24.5007 38.7683ZM10.5007 30.6143H38.5007C38.5007 26.7476 37.134 23.4476 34.4007 20.7143C31.6673 17.981 28.3673 16.6143 24.5007 16.6143C20.634 16.6143 17.334 17.981 14.6007 20.7143C11.8673 23.4476 10.5007 26.7476 10.5007 30.6143ZM24.5102 36.7683C25.6552 36.7683 26.6322 36.3615 27.4412 35.5478C28.2502 34.7345 28.6547 33.7566 28.6547 32.6143H20.3467C20.3467 33.7656 20.7543 34.7458 21.5697 35.5548C22.385 36.3638 23.3652 36.7683 24.5102 36.7683Z" fill="#003EFF"/>
</svg>
