<svg width="48" height="49" viewBox="0 0 48 49" fill="none" xmlns="http://www.w3.org/2000/svg">
<path d="M8.01409 41.4218C7.73075 41.4218 7.49325 41.3258 7.30159 41.1338C7.10992 40.9418 7.01409 40.704 7.01409 40.4203C7.01409 40.1366 7.10992 39.8993 7.30159 39.7083C7.49325 39.5173 7.73075 39.4218 8.01409 39.4218H20.0141C20.2974 39.4218 20.5349 39.5178 20.7266 39.7098C20.9183 39.9018 21.0141 40.1396 21.0141 40.4233C21.0141 40.707 20.9183 40.9443 20.7266 41.1353C20.5349 41.3263 20.2974 41.4218 20.0141 41.4218H8.01409ZM34.0281 39.4988C33.1751 39.4988 32.4468 39.1905 31.8431 38.5738C31.2391 37.9571 30.9371 37.227 30.9371 36.3833H25.7066C25.2679 36.3833 24.8891 36.2506 24.5701 35.9853C24.2508 35.72 24.0911 35.3821 24.0911 34.9718C24.1271 32.6898 25.0284 30.7673 26.7951 29.2043C28.5618 27.6416 30.6348 26.7423 33.0141 26.5063V8.3833C33.0141 8.09997 33.1101 7.86247 33.3021 7.6708C33.4941 7.47913 33.7319 7.3833 34.0156 7.3833C34.2993 7.3833 34.5366 7.47913 34.7276 7.6708C34.9186 7.86247 35.0141 8.09997 35.0141 8.3833V26.5063C37.4268 26.7423 39.5146 27.6416 41.2776 29.2043C43.0403 30.7673 43.9396 32.6898 43.9756 34.9718C43.9756 35.3821 43.8159 35.72 43.4966 35.9853C43.1776 36.2506 42.7988 36.3833 42.3601 36.3833H37.1296C37.1296 37.227 36.8323 37.9571 36.2376 38.5738C35.6433 39.1905 34.9068 39.4988 34.0281 39.4988ZM14.0126 36.4218C13.7289 36.4218 13.4916 36.326 13.3006 36.1343C13.1096 35.9426 13.0141 35.7051 13.0141 35.4218V21.4218H6.12959C5.59092 21.4218 5.16009 21.2083 4.83709 20.7813C4.51409 20.3543 4.42309 19.8883 4.56409 19.3833L7.42959 8.6143C7.51159 8.25763 7.69675 7.9698 7.98509 7.7508C8.27375 7.53147 8.61042 7.4218 8.99509 7.4218H19.0911C19.4681 7.4218 19.7994 7.53147 20.0851 7.7508C20.3711 7.9698 20.5551 8.25763 20.6371 8.6143L23.5026 19.3833C23.6436 19.8883 23.5526 20.3543 23.2296 20.7813C22.9066 21.2083 22.4758 21.4218 21.9371 21.4218H15.0141V35.4218C15.0141 35.7051 14.9181 35.9426 14.7261 36.1343C14.5341 36.326 14.2963 36.4218 14.0126 36.4218ZM26.2141 34.4218H41.8141C41.5934 32.5705 40.7214 31.1076 39.1981 30.0333C37.6748 28.959 35.9438 28.4218 34.0051 28.4218C32.1008 28.4218 30.3833 28.959 28.8526 30.0333C27.3219 31.1076 26.4424 32.5705 26.2141 34.4218ZM6.61409 19.4218H21.4141L18.7641 9.4218H9.31409L6.61409 19.4218Z" fill="#003EFF"/>
</svg>
