<svg width="49" height="49" viewBox="0 0 49 49" fill="none" xmlns="http://www.w3.org/2000/svg">
<path d="M35.7565 37.2333L33.226 39.7258C33.0387 39.9128 32.811 39.9999 32.543 39.9873C32.275 39.9743 32.0437 39.8704 31.849 39.6758C31.6617 39.4884 31.568 39.2653 31.568 39.0063C31.568 38.7473 31.6617 38.5243 31.849 38.3373L34.3295 35.8063L31.849 33.3258C31.6617 33.1384 31.568 32.9108 31.568 32.6428C31.568 32.3748 31.6617 32.1434 31.849 31.9488C32.0437 31.7281 32.2815 31.6243 32.5625 31.6373C32.8432 31.6499 33.081 31.7538 33.276 31.9488L35.7565 34.4293L38.199 31.9373C38.386 31.7423 38.62 31.6448 38.901 31.6448C39.1817 31.6448 39.4195 31.7423 39.6145 31.9373C39.8348 32.1576 39.945 32.3954 39.945 32.6508C39.945 32.9058 39.8348 33.1436 39.6145 33.3643L37.1335 35.8063L39.626 38.2988C39.8207 38.4934 39.9225 38.7293 39.9315 39.0063C39.9405 39.2833 39.8348 39.5193 39.6145 39.7143C39.4195 39.9013 39.1835 39.9903 38.9065 39.9813C38.6295 39.9723 38.3937 39.8704 38.199 39.6758L35.7565 37.2333ZM13.3335 38.3833C14.1565 38.3833 14.8623 38.0891 15.451 37.5008C16.0393 36.9121 16.3335 36.2063 16.3335 35.3833C16.3335 34.5603 16.0393 33.8544 15.451 33.2658C14.8623 32.6774 14.1565 32.3833 13.3335 32.3833C12.5105 32.3833 11.8047 32.6774 11.216 33.2658C10.6277 33.8544 10.3335 34.5603 10.3335 35.3833C10.3335 36.2063 10.6277 36.9121 11.216 37.5008C11.8047 38.0891 12.5105 38.3833 13.3335 38.3833ZM13.3335 40.3833C11.9488 40.3833 10.7693 39.8961 9.795 38.9218C8.82066 37.9474 8.3335 36.7679 8.3335 35.3833C8.3335 33.9986 8.82066 32.8191 9.795 31.8448C10.7693 30.8704 11.9488 30.3833 13.3335 30.3833C14.5155 30.3833 15.5635 30.7506 16.4775 31.4853C17.3918 32.2199 17.9668 33.1706 18.2025 34.3373C19.7592 34.2013 21.0675 33.5614 22.1275 32.4178C23.1878 31.2741 23.718 29.9293 23.718 28.3833V20.9603C23.718 18.4756 24.5968 16.3544 26.3545 14.5968C28.1122 12.8391 30.2333 11.9603 32.718 11.9603H36.4795L33.0375 8.51776C32.8425 8.32309 32.7405 8.09175 32.7315 7.82375C32.7225 7.55575 32.8283 7.31142 33.049 7.09076C33.2693 6.87042 33.5072 6.76025 33.7625 6.76025C34.0175 6.76025 34.2553 6.87042 34.476 7.09076L39.2025 11.8293C39.5258 12.1526 39.6875 12.5296 39.6875 12.9603C39.6875 13.3909 39.5258 13.7678 39.2025 14.0908L34.426 18.8678C34.2387 19.0551 34.0175 19.1506 33.7625 19.1543C33.5072 19.1583 33.2693 19.0628 33.049 18.8678C32.8283 18.6808 32.7245 18.4513 32.7375 18.1793C32.7502 17.9076 32.8502 17.6614 33.0375 17.4408L36.441 13.9603H32.718C30.7693 13.9603 29.1155 14.6398 27.7565 15.9988C26.3975 17.3578 25.718 19.0116 25.718 20.9603V28.3833C25.718 30.4833 24.9923 32.2916 23.541 33.8083C22.09 35.3249 20.3183 36.1718 18.226 36.3488C18.0053 37.5308 17.4342 38.4986 16.5125 39.2523C15.5905 40.0063 14.5308 40.3833 13.3335 40.3833ZM12.9105 14.3873L10.3795 16.8793C10.1925 17.0666 9.965 17.1538 9.697 17.1408C9.429 17.1281 9.1975 17.0243 9.0025 16.8293C8.8155 16.6423 8.722 16.4193 8.722 16.1603C8.722 15.9013 8.8155 15.6781 9.0025 15.4908L11.4835 12.9603L9.0025 10.4793C8.8155 10.2923 8.722 10.0648 8.722 9.79676C8.722 9.52876 8.8155 9.29726 9.0025 9.10226C9.1975 8.88192 9.43533 8.77809 9.716 8.79076C9.997 8.80376 10.2348 8.90759 10.4295 9.10226L12.9105 11.5833L15.3525 9.09076C15.5398 8.89609 15.7738 8.79875 16.0545 8.79875C16.3355 8.79875 16.5733 8.89609 16.768 9.09076C16.9887 9.31142 17.099 9.54925 17.099 9.80425C17.099 10.0596 16.9887 10.2974 16.768 10.5178L14.2875 12.9603L16.7795 15.4523C16.9745 15.6473 17.0765 15.8833 17.0855 16.1603C17.0945 16.4373 16.9887 16.6731 16.768 16.8678C16.5733 17.0551 16.3375 17.1443 16.0605 17.1353C15.7835 17.1263 15.5475 17.0243 15.3525 16.8293L12.9105 14.3873Z" fill="#003EFF"/>
</svg>
