<svg width="49" height="49" viewBox="0 0 49 49" fill="none" xmlns="http://www.w3.org/2000/svg">
<path d="M11.1142 40.3833C10.6499 40.3833 10.2646 40.2301 9.95822 39.9238C9.65189 39.6175 9.49872 39.2321 9.49872 38.7678V36.7258C9.49872 36.2948 9.58588 35.8761 9.76022 35.4698C9.93455 35.0635 10.1666 34.7155 10.4562 34.4258L35.9257 8.9678C36.1461 8.74747 36.3781 8.59497 36.6217 8.5103C36.8654 8.42563 37.1091 8.3833 37.3527 8.3833C37.6041 8.3833 37.8559 8.42563 38.1082 8.5103C38.3609 8.59497 38.5807 8.74747 38.7677 8.9678L40.9142 11.1143C41.1346 11.3013 41.2871 11.5211 41.3717 11.7738C41.4564 12.0261 41.4987 12.278 41.4987 12.5293C41.4987 12.773 41.4564 13.0166 41.3717 13.2603C41.2871 13.504 41.1346 13.736 40.9142 13.9563L15.4562 39.4258C15.1666 39.7155 14.8186 39.9475 14.4122 40.1218C14.0059 40.2961 13.5872 40.3833 13.1562 40.3833H11.1142ZM11.4987 38.3833H13.6447L34.7562 17.2833L33.7027 16.1793L32.5987 15.1258L11.4987 36.2373V38.3833ZM33.7027 16.1793L32.5987 15.1258L34.7562 17.2833L33.7027 16.1793ZM28.0372 40.3833C30.2476 40.3833 32.3001 39.8563 34.1947 38.8023C36.0897 37.7486 37.0372 36.2756 37.0372 34.3833C37.0372 33.368 36.7192 32.443 36.0832 31.6083C35.4476 30.7736 34.5297 30.0615 33.3297 29.4718C33.0937 29.3435 32.8437 29.3178 32.5797 29.3948C32.3154 29.4718 32.1154 29.6205 31.9797 29.8408C31.8437 30.0615 31.8142 30.3096 31.8912 30.5853C31.9679 30.861 32.1242 31.0628 32.3602 31.1908C33.2116 31.6088 33.8706 32.0896 34.3372 32.6333C34.8039 33.177 35.0372 33.7603 35.0372 34.3833C35.0372 35.509 34.3456 36.457 32.9622 37.2273C31.5789 37.998 29.9372 38.3833 28.0372 38.3833C27.7526 38.3833 27.5147 38.4788 27.3237 38.6698C27.1327 38.8608 27.0372 39.0986 27.0372 39.3833C27.0372 39.668 27.1327 39.9058 27.3237 40.0968C27.5147 40.2878 27.7526 40.3833 28.0372 40.3833ZM19.4987 13.3833C19.4987 14.0806 19.1301 14.7108 18.3927 15.2738C17.6557 15.8365 16.1987 16.6011 14.0217 17.5678C11.5347 18.6575 9.82572 19.6196 8.89472 20.4543C7.96405 21.289 7.49872 22.2653 7.49872 23.3833C7.49872 24.173 7.72438 24.8563 8.17572 25.4333C8.62705 26.0103 9.16939 26.4975 9.80272 26.8948C10.0307 27.0565 10.2704 27.1058 10.5217 27.0428C10.7731 26.9801 10.9796 26.8346 11.1412 26.6063C11.3026 26.3783 11.3537 26.1321 11.2947 25.8678C11.2357 25.6038 11.0922 25.391 10.8642 25.2293C10.3999 24.9346 10.0562 24.6335 9.83322 24.3258C9.61022 24.0181 9.49872 23.704 9.49872 23.3833C9.49872 22.7783 9.86922 22.186 10.6102 21.6063C11.3512 21.027 12.7526 20.295 14.8142 19.4103C17.4399 18.2973 19.2104 17.2946 20.1257 16.4023C21.0411 15.5103 21.4987 14.504 21.4987 13.3833C21.4987 11.9346 20.8487 10.7391 19.5487 9.7968C18.2487 8.85447 16.5654 8.3833 14.4987 8.3833C13.2551 8.3833 12.0737 8.61147 10.9547 9.0678C9.83538 9.52413 9.02305 10.0845 8.51772 10.7488C8.33072 10.9768 8.25138 11.223 8.27972 11.4873C8.30772 11.7513 8.43588 11.973 8.66422 12.1523C8.89222 12.314 9.13189 12.3806 9.38322 12.3523C9.63455 12.3243 9.85389 12.2166 10.0412 12.0293C10.5846 11.486 11.2294 11.0758 11.9757 10.7988C12.7217 10.5218 13.5627 10.3833 14.4987 10.3833C16.0704 10.3833 17.2967 10.6795 18.1777 11.2718C19.0584 11.8641 19.4987 12.568 19.4987 13.3833Z" fill="#003EFF"/>
</svg>
