<svg width="20" height="21" viewBox="0 0 20 21" fill="none" xmlns="http://www.w3.org/2000/svg">
<path d="M18.5104 4.90869C17.8743 5.1901 17.1996 5.37494 16.5088 5.45707C17.2366 5.02141 17.7812 4.33606 18.0411 3.52869C17.3573 3.93499 16.6088 4.22095 15.8282 4.37415C15.1693 3.67119 14.2483 3.27284 13.2848 3.27393C11.3605 3.27393 9.79975 4.83415 9.79975 6.75934C9.79975 7.03246 9.83109 7.29733 9.88967 7.55289C6.99206 7.40701 4.42506 6.02035 2.70565 3.91149C2.39608 4.44337 2.23338 5.04796 2.2342 5.66337C2.2342 6.87247 2.84967 7.93968 3.78458 8.56448C3.23115 8.54698 2.6899 8.39751 2.20599 8.12842C2.20545 8.14306 2.20545 8.1577 2.20545 8.17154C2.20545 9.86064 3.40683 11.2696 5.00166 11.5896C4.70234 11.6706 4.3936 11.7115 4.08352 11.7112C3.85831 11.7112 3.63976 11.6905 3.42733 11.6497C3.8711 13.0341 5.15739 14.0419 6.683 14.0696C5.44845 15.0385 3.92391 15.5641 2.35453 15.5619C2.07677 15.5621 1.79925 15.5457 1.52344 15.5129C3.1167 16.5371 4.97127 17.0807 6.86535 17.0787C13.2763 17.0787 16.7817 11.7682 16.7817 7.1629C16.7817 7.01223 16.778 6.86103 16.7713 6.71195C17.4536 6.21902 18.0425 5.60837 18.5104 4.90869Z" fill="#5A4635"/>
</svg>
