<svg width="18" height="18" viewBox="0 0 18 18" fill="none" xmlns="http://www.w3.org/2000/svg">
<path d="M9.85675 0.862793C10.7946 0.864343 11.2698 0.869301 11.6805 0.881526L11.8422 0.886818C12.0291 0.89346 12.2134 0.901793 12.4357 0.91221C13.3224 0.953176 13.9273 1.09346 14.4586 1.29971C15.0078 1.51151 15.4717 1.79763 15.9349 2.26082C16.3974 2.72401 16.6836 3.18929 16.8961 3.73721C17.1016 4.26776 17.2419 4.87332 17.2836 5.76013C17.2935 5.98234 17.3015 6.16668 17.3081 6.35355L17.3133 6.51529C17.3255 6.92591 17.3311 7.40123 17.3328 8.33906L17.3335 8.96048C17.3336 9.03639 17.3336 9.11473 17.3336 9.19556L17.3335 9.43064L17.333 10.0521C17.3314 10.9899 17.3265 11.4651 17.3142 11.8758L17.3089 12.0376C17.3023 12.2244 17.294 12.4087 17.2836 12.631C17.2426 13.5177 17.1016 14.1226 16.8961 14.6539C16.6842 15.2031 16.3974 15.6671 15.9349 16.1302C15.4717 16.5927 15.0057 16.8789 14.4586 17.0914C13.9273 17.2969 13.3224 17.4372 12.4357 17.4789C12.2134 17.4888 12.0291 17.4968 11.8422 17.5034L11.6805 17.5086C11.2698 17.5208 10.7946 17.5264 9.85675 17.5281L9.23533 17.5288C9.15941 17.5289 9.08108 17.5289 9.00025 17.5289L8.76516 17.5288L8.14375 17.5283C7.20591 17.5267 6.7306 17.5218 6.31997 17.5096L6.15824 17.5042C5.97136 17.4976 5.78703 17.4893 5.56481 17.4789C4.67801 17.4379 4.07384 17.2969 3.5419 17.0914C2.99328 16.8796 2.5287 16.5927 2.06551 16.1302C1.60231 15.6671 1.3169 15.2011 1.1044 14.6539C0.898147 14.1226 0.758564 13.5177 0.716897 12.631C0.706997 12.4087 0.698922 12.2244 0.692381 12.0376L0.687139 11.8758C0.674947 11.4651 0.669389 10.9899 0.667589 10.0521L0.66748 8.33906C0.66903 7.40123 0.673989 6.92591 0.686214 6.51529L0.691506 6.35355C0.698147 6.16668 0.706481 5.98234 0.716897 5.76013C0.757864 4.87263 0.898147 4.26846 1.1044 3.73721C1.3162 3.18859 1.60231 2.72401 2.06551 2.26082C2.5287 1.79763 2.99398 1.51221 3.5419 1.29971C4.07315 1.09346 4.67731 0.953876 5.56481 0.91221C5.78703 0.90231 5.97136 0.894235 6.15824 0.887693L6.31997 0.882451C6.7306 0.87026 7.20591 0.864701 8.14375 0.862901L9.85675 0.862793ZM9.00025 5.02888C6.69781 5.02888 4.83356 6.89515 4.83356 9.19556C4.83356 11.498 6.69984 13.3622 9.00025 13.3622C11.3027 13.3622 13.1669 11.4959 13.1669 9.19556C13.1669 6.89313 11.3006 5.02888 9.00025 5.02888ZM9.00025 6.69554C10.381 6.69554 11.5002 7.81439 11.5002 9.19556C11.5002 10.5763 10.3813 11.6956 9.00025 11.6956C7.6195 11.6956 6.50023 10.5766 6.50023 9.19556C6.50023 7.81481 7.61908 6.69554 9.00025 6.69554ZM13.3752 3.77888C12.8008 3.77888 12.3336 4.24546 12.3336 4.81983C12.3336 5.3942 12.8002 5.86151 13.3752 5.86151C13.9496 5.86151 14.4169 5.39493 14.4169 4.81983C14.4169 4.24546 13.9488 3.77815 13.3752 3.77888Z" fill="#A09185"/>
</svg>
