<svg width="16" height="16" viewBox="0 0 16 16" fill="none" xmlns="http://www.w3.org/2000/svg">
<path d="M13.2802 13.4778H11.0589V9.99715C11.0589 9.16715 11.0421 8.09906 9.90142 8.09906C8.74334 8.09906 8.56642 9.00223 8.56642 9.9359V13.4778H6.34517V6.32031H8.47892V7.2959H8.50767C8.80584 6.7334 9.53084 6.13969 10.6139 6.13969C12.8646 6.13969 13.2808 7.62098 13.2808 9.54906L13.2802 13.4778ZM3.83645 5.34094C3.12145 5.34094 2.54707 4.76219 2.54707 4.05031C2.54707 3.33906 3.12207 2.76094 3.83645 2.76094C4.54895 2.76094 5.12645 3.33906 5.12645 4.05031C5.12645 4.76219 4.54832 5.34094 3.83645 5.34094ZM4.9502 13.4778H2.7227V6.32031H4.9502V13.4778ZM14.3914 0.695312H1.6077C0.995824 0.695312 0.500824 1.17906 0.500824 1.77594V14.6147C0.500824 15.2121 0.995824 15.6953 1.6077 15.6953H14.3896C15.0008 15.6953 15.5008 15.2121 15.5008 14.6147V1.77594C15.5008 1.17906 15.0008 0.695312 14.3896 0.695312H14.3914Z" fill="#A09185"/>
</svg>
