<svg width="17" height="17" viewBox="0 0 17 17" fill="none" xmlns="http://www.w3.org/2000/svg">
<path d="M8.39961 0.195312C3.9263 0.195312 0.299578 3.79368 0.299578 8.23287C0.299578 9.75139 0.724306 11.1716 1.46191 12.3832L0 16.6953L4.48461 15.2706C5.64506 15.9073 6.97968 16.2704 8.39961 16.2704C12.8735 16.2704 16.5 12.6716 16.5 8.23287C16.5 3.79368 12.8735 0.195312 8.39961 0.195312ZM12.4274 11.2853C12.2369 11.7577 11.3751 12.1889 10.9948 12.2087C10.6149 12.2289 10.6041 12.5031 8.53304 11.6034C6.46225 10.7035 5.21639 8.51544 5.11817 8.37453C5.01987 8.23413 4.316 7.23105 4.35397 6.22161C4.3922 5.21198 4.94499 4.73565 5.14229 4.53754C5.33937 4.33913 5.56532 4.30359 5.70329 4.30134C5.86638 4.29869 5.97201 4.29648 6.0927 4.30094C6.21328 4.30551 6.39441 4.27571 6.55124 4.69278C6.70799 5.10981 7.08318 6.1348 7.13117 6.23925C7.17912 6.34381 7.20881 6.46487 7.13492 6.59912C7.06082 6.73366 7.02289 6.81771 6.91538 6.93365C6.80728 7.04959 6.68799 7.19301 6.59157 7.28166C6.48402 7.37981 6.37169 7.48688 6.48476 7.6967C6.59775 7.90637 6.9876 8.59374 7.58153 9.16019C8.34484 9.88836 9.00311 10.1299 9.20567 10.2399C9.40879 10.3506 9.53 10.3383 9.65596 10.2057C9.78133 10.0732 10.1951 9.6258 10.3409 9.42607C10.4865 9.22578 10.623 9.26501 10.8102 9.34029C10.9972 9.41587 11.9945 9.95005 12.1977 10.0604C12.4006 10.1704 12.5362 10.2272 12.5847 10.3145C12.6333 10.4021 12.6179 10.8128 12.4274 11.2853Z" fill="#A09185"/>
</svg>
