<svg width="150" height="41" viewBox="0 0 150 41" fill="none" xmlns="http://www.w3.org/2000/svg">
<path d="M18.8188 18.1824C18.9252 18.087 19.0069 17.9673 19.0571 17.8335C19.1073 17.6997 19.1244 17.5558 19.107 17.414C19.0934 17.284 19.0416 17.1609 18.9582 17.0603C18.8747 16.9598 18.7633 16.8862 18.638 16.8489C18.5332 16.9443 18.4525 17.0632 18.4024 17.1957C18.3523 17.3283 18.3343 17.4709 18.3498 17.6117C18.3631 17.7425 18.4146 17.8664 18.4981 17.9679C18.5815 18.0695 18.6931 18.1441 18.8188 18.1824ZM19.1635 18.4932C19.0481 18.5895 18.9577 18.7122 18.8996 18.8509C18.8416 18.9895 18.8178 19.1401 18.8301 19.2899C18.9765 19.3027 19.1239 19.2844 19.2626 19.2361C19.4014 19.1879 19.5283 19.1107 19.6351 19.0098C19.7419 18.9089 19.8261 18.7865 19.8821 18.6507C19.9381 18.5149 19.9647 18.3688 19.9602 18.222C19.8155 18.2024 19.6682 18.2168 19.5299 18.2638C19.3917 18.3109 19.2662 18.3894 19.1635 18.4932ZM18.6889 19.2616C18.7263 19.1265 18.7256 18.9837 18.6867 18.849C18.6478 18.7143 18.5722 18.5931 18.4685 18.4988C18.3647 18.4029 18.2368 18.337 18.0985 18.3081C17.9601 18.2793 17.8166 18.2885 17.6831 18.335C17.6436 18.4694 17.6428 18.6123 17.6808 18.7472C17.7187 18.8822 17.794 19.0036 17.8978 19.0978C18.0028 19.1936 18.1316 19.2595 18.2708 19.2883C18.41 19.3171 18.5544 19.3079 18.6889 19.2616ZM18.6945 20.2391C18.5538 20.3279 18.4357 20.4481 18.3494 20.5902C18.2631 20.7324 18.211 20.8927 18.1973 21.0585C18.3526 21.1073 18.5175 21.1179 18.6779 21.0894C18.8382 21.0609 18.9893 20.994 19.1183 20.8946C19.2581 20.8049 19.3756 20.6845 19.4617 20.5425C19.5479 20.4005 19.6005 20.2407 19.6155 20.0753C19.4603 20.025 19.2952 20.0136 19.1345 20.0422C18.9739 20.0707 18.8228 20.1384 18.6945 20.2391ZM18.0504 20.9963C18.1144 20.8561 18.1394 20.7012 18.1224 20.548C18.1055 20.3947 18.0474 20.249 17.9543 20.1261C17.8621 20.0041 17.7375 19.9102 17.5947 19.8553C17.4519 19.8004 17.2966 19.7866 17.1463 19.8154C17.079 19.9536 17.0503 20.1074 17.0633 20.2606C17.0762 20.4137 17.1303 20.5606 17.2197 20.6855C17.3138 20.8116 17.4421 20.9079 17.5894 20.963C17.7367 21.0181 17.8967 21.0297 18.0504 20.9963ZM18.2086 22.0529C18.0357 22.1199 17.8801 22.2247 17.753 22.3596C17.6259 22.4945 17.5306 22.6562 17.474 22.8327C17.6199 22.9265 17.7873 22.9814 17.9603 22.9923C18.1334 23.0032 18.3064 22.9696 18.4628 22.8948C18.6357 22.8278 18.7913 22.7231 18.9184 22.5881C19.0455 22.4532 19.1408 22.2916 19.1974 22.1151C19.0522 22.0197 18.8846 21.9639 18.7112 21.953C18.5378 21.9421 18.3646 21.9765 18.2086 22.0529ZM16.5926 22.1772C16.6477 22.3342 16.7478 22.4715 16.8804 22.572C17.0131 22.6725 17.1723 22.7317 17.3384 22.7423C17.4426 22.6023 17.5101 22.4385 17.5348 22.2658C17.5595 22.0931 17.5405 21.917 17.4797 21.7535C17.4235 21.596 17.3224 21.4585 17.1888 21.3581C17.0552 21.2576 16.895 21.1986 16.7282 21.1884C16.6235 21.3282 16.5561 21.4923 16.5324 21.6653C16.5086 21.8383 16.5293 22.0145 16.5926 22.1772ZM17.2197 23.5559C17.0397 23.6025 16.8724 23.6885 16.7297 23.8077C16.587 23.927 16.4726 24.0764 16.3948 24.2453C16.5221 24.36 16.6779 24.4384 16.8459 24.4722C17.0139 24.506 17.1879 24.494 17.3497 24.4374C17.5302 24.3922 17.6984 24.3074 17.842 24.1891C17.9857 24.0709 18.1012 23.9221 18.1803 23.7537C18.0521 23.6385 17.8956 23.5595 17.7268 23.5248C17.558 23.49 17.383 23.5008 17.2197 23.5559ZM15.9202 22.488C15.7979 22.616 15.7091 22.7722 15.6618 22.9427C15.6145 23.1133 15.6101 23.2929 15.6489 23.4655C15.6807 23.6272 15.7592 23.776 15.8747 23.8936C15.9902 24.0111 16.1376 24.0921 16.2987 24.1266C16.4171 23.9972 16.5038 23.842 16.5519 23.6734C16.5999 23.5047 16.608 23.3271 16.5756 23.1548C16.5445 22.9913 16.4656 22.8407 16.3489 22.722C16.2323 22.6034 16.0831 22.5219 15.9202 22.488ZM15.8354 24.9459C15.6354 24.9298 15.4345 24.9602 15.2482 25.0347C15.062 25.1092 14.8955 25.2258 14.7618 25.3754C14.8276 25.5486 14.9432 25.6984 15.094 25.806C15.2449 25.9136 15.4242 25.9742 15.6094 25.9799C15.8098 25.9954 16.011 25.9641 16.1973 25.8886C16.3836 25.8131 16.5498 25.6955 16.683 25.5449C16.6157 25.3731 16.4996 25.2249 16.3489 25.1184C16.1983 25.012 16.0198 24.952 15.8354 24.9459ZM14.3324 24.2227C14.2935 24.4037 14.3075 24.592 14.3726 24.7653C14.4377 24.9386 14.5512 25.0896 14.6997 25.2002C14.8755 25.0985 15.0258 24.9582 15.1394 24.7898C15.2529 24.6214 15.3267 24.4294 15.3551 24.2283C15.3926 24.0473 15.378 23.8594 15.3129 23.6864C15.2479 23.5134 15.1352 23.3624 14.9878 23.2508C14.812 23.3525 14.6617 23.4928 14.5481 23.6612C14.4346 23.8296 14.3608 24.0216 14.3324 24.2227ZM14.0273 25.8952C13.8079 25.8768 13.5873 25.9102 13.3832 25.9927C13.179 26.0751 12.9971 26.2043 12.852 26.3698C12.9266 26.5565 13.054 26.7174 13.2185 26.8328C13.3831 26.9482 13.5778 27.0131 13.7787 27.0196C13.9987 27.0362 14.2196 27.0021 14.4244 26.9198C14.6291 26.8375 14.8122 26.7092 14.9596 26.545C14.8846 26.3575 14.7564 26.196 14.5907 26.0805C14.425 25.9651 14.2292 25.9006 14.0273 25.8952ZM13.5018 25.1098C13.5453 24.9112 13.5306 24.7043 13.4594 24.5139C13.3882 24.3235 13.2637 24.1576 13.1006 24.0362C12.9066 24.1459 12.7405 24.2988 12.6151 24.483C12.4897 24.6672 12.4083 24.8778 12.3774 25.0985C12.3369 25.2979 12.353 25.5046 12.4239 25.6954C12.4948 25.8861 12.6176 26.0532 12.7785 26.1777C12.9721 26.0661 13.1378 25.912 13.2631 25.727C13.3884 25.542 13.47 25.331 13.5018 25.1098ZM5.91896 17.6117C5.93542 17.4699 5.91787 17.3263 5.86775 17.1927C5.81764 17.059 5.73641 16.9393 5.63079 16.8433C5.50552 16.8805 5.39411 16.9541 5.31064 17.0547C5.22716 17.1553 5.17537 17.2783 5.16181 17.4083C5.1444 17.5501 5.16151 17.6941 5.21169 17.8279C5.26186 17.9617 5.34361 18.0813 5.44998 18.1768C5.57488 18.1388 5.6859 18.0651 5.76926 17.9646C5.85263 17.8642 5.90468 17.7415 5.91896 17.6117ZM5.43868 19.2899C5.45101 19.1401 5.42716 18.9895 5.36914 18.8509C5.31113 18.7122 5.22064 18.5895 5.10531 18.4932C5.00015 18.3861 4.87097 18.3056 4.72848 18.2584C4.58598 18.2112 4.43429 18.1987 4.286 18.222C4.27367 18.3718 4.29752 18.5223 4.35553 18.661C4.41355 18.7996 4.50404 18.9223 4.61937 19.0187C4.72397 19.1266 4.8531 19.2076 4.99575 19.2548C5.13841 19.302 5.29037 19.314 5.43868 19.2899ZM5.57994 19.2616C5.71435 19.3079 5.85875 19.3171 5.99796 19.2883C6.13716 19.2595 6.26603 19.1936 6.37099 19.0978C6.47484 19.0036 6.55006 18.8822 6.58804 18.7472C6.62601 18.6123 6.62521 18.4694 6.58571 18.335C6.45223 18.2885 6.30865 18.2793 6.17031 18.3081C6.03198 18.337 5.90408 18.4029 5.8003 18.4988C5.69656 18.5931 5.62102 18.7143 5.58211 18.849C5.5432 18.9837 5.54245 19.1265 5.57994 19.2616ZM6.07152 21.0585C6.05777 20.8927 6.00569 20.7324 5.9194 20.5902C5.83311 20.4481 5.71497 20.3279 5.57429 20.2391C5.44548 20.1393 5.29412 20.0727 5.13352 20.0451C4.97292 20.0175 4.808 20.0298 4.65327 20.0809C4.66912 20.2454 4.72211 20.404 4.80825 20.545C4.89438 20.6859 5.01142 20.8055 5.15051 20.8946C5.27949 20.994 5.43058 21.0609 5.59093 21.0894C5.75128 21.1179 5.91615 21.1073 6.07152 21.0585ZM6.21843 20.9963C6.37211 21.0297 6.53214 21.0181 6.67942 20.963C6.8267 20.9079 6.95502 20.8116 7.04904 20.6855C7.14216 20.5627 7.20027 20.4169 7.21718 20.2637C7.23409 20.1105 7.20918 19.9556 7.1451 19.8154C6.99483 19.7866 6.8395 19.8004 6.6967 19.8553C6.55389 19.9102 6.42932 20.0041 6.33709 20.1261C6.24029 20.2468 6.17811 20.3915 6.15721 20.5448C6.13631 20.6981 6.15747 20.8541 6.21843 20.9963ZM6.79477 22.8327C6.73821 22.6562 6.6429 22.4945 6.5158 22.3596C6.38871 22.2247 6.23305 22.1199 6.06022 22.0529C5.9042 21.9765 5.73096 21.9421 5.55757 21.953C5.38419 21.9639 5.21663 22.0197 5.0714 22.1151C5.12796 22.2916 5.22328 22.4532 5.35037 22.5881C5.47747 22.7231 5.63313 22.8278 5.80595 22.8948C5.9624 22.9696 6.13538 23.0032 6.30844 22.9923C6.48151 22.9814 6.64892 22.9265 6.79477 22.8327ZM6.78912 21.7422C6.72828 21.9057 6.70933 22.0818 6.734 22.2545C6.75868 22.4272 6.82619 22.591 6.93038 22.731C7.09644 22.7204 7.25572 22.6612 7.38835 22.5607C7.52098 22.4602 7.6211 22.3229 7.67623 22.1659C7.73944 22.0032 7.76016 21.827 7.73643 21.654C7.71271 21.481 7.64532 21.3169 7.54062 21.1771C7.37378 21.1873 7.21362 21.2463 7.08002 21.3468C6.94642 21.4472 6.84527 21.5847 6.78912 21.7422ZM7.04904 23.5559C6.88577 23.5008 6.71078 23.49 6.54198 23.5248C6.37319 23.5595 6.21667 23.6385 6.08847 23.7537C6.16755 23.9221 6.2831 24.0709 6.42676 24.1891C6.57042 24.3074 6.73859 24.3922 6.91908 24.4374C7.08084 24.494 7.25486 24.506 7.42288 24.4722C7.59089 24.4384 7.74672 24.36 7.874 24.2453C7.79618 24.0764 7.68179 23.927 7.53911 23.8077C7.39644 23.6885 7.22904 23.6025 7.04904 23.5559ZM7.97005 24.1266C8.13117 24.0921 8.27862 24.0111 8.39413 23.8936C8.50963 23.776 8.58812 23.6272 8.61985 23.4655C8.65872 23.2929 8.6543 23.1133 8.60698 22.9427C8.55966 22.7722 8.47091 22.616 8.34863 22.488C8.18572 22.5219 8.03651 22.6034 7.91985 22.722C7.80319 22.8407 7.72431 22.9913 7.69319 23.1548C7.66075 23.3271 7.66888 23.5047 7.71694 23.6734C7.76499 23.842 7.85165 23.9972 7.97005 24.1266ZM9.50696 25.3754C9.3733 25.2258 9.20682 25.1092 9.02056 25.0347C8.83431 24.9602 8.63334 24.9298 8.43339 24.9459C8.25286 24.9491 8.07705 25.0041 7.92681 25.1043C7.77658 25.2044 7.65824 25.3456 7.58583 25.511C7.71894 25.6616 7.88518 25.7792 8.07146 25.8547C8.25774 25.9302 8.459 25.9615 8.6594 25.946C8.84072 25.943 9.01729 25.8875 9.16771 25.7862C9.31814 25.685 9.43598 25.5422 9.50696 25.3754ZM9.56912 25.2002C9.71755 25.0896 9.83107 24.9386 9.89618 24.7653C9.96129 24.592 9.97525 24.4037 9.93639 24.2227C9.91113 24.0241 9.84168 23.8337 9.73313 23.6655C9.62459 23.4973 9.47973 23.3556 9.3092 23.2508C9.16183 23.3624 9.0491 23.5134 8.9841 23.6864C8.91909 23.8594 8.90447 24.0473 8.94192 24.2283C8.96718 24.4269 9.03664 24.6173 9.14518 24.7855C9.25372 24.9537 9.39858 25.0954 9.56912 25.2002ZM9.3092 26.545C9.456 26.7103 9.63887 26.8396 9.84365 26.9228C10.0484 27.0061 10.2696 27.0412 10.4901 27.0253C10.691 27.0188 10.8857 26.9538 11.0503 26.8384C11.2148 26.723 11.3422 26.5621 11.4168 26.3755C11.2717 26.2099 11.0898 26.0807 10.8856 25.9983C10.6815 25.9159 10.4609 25.8825 10.2415 25.9008C10.0403 25.9058 9.84487 25.9694 9.67926 26.0838C9.51365 26.1982 9.38503 26.3585 9.3092 26.545ZM11.1682 24.0362C11.0051 24.1576 10.8805 24.3235 10.8094 24.5139C10.7382 24.7043 10.7235 24.9112 10.767 25.1098C10.7988 25.331 10.8804 25.542 11.0057 25.727C11.131 25.912 11.2967 26.0661 11.4902 26.1777C11.6511 26.0532 11.774 25.8861 11.8449 25.6954C11.9158 25.5046 11.9319 25.2979 11.8914 25.0985C11.8605 24.8778 11.7791 24.6672 11.6537 24.483C11.5283 24.2988 11.3622 24.1459 11.1682 24.0362Z" fill="#E3B742"/>
<path d="M12.9085 17.1372L12.1344 15.5664L11.3603 17.1372L9.63126 17.3858L10.8856 18.6063L10.5862 20.3297L12.1344 19.516L13.6826 20.3297L13.3831 18.6063L14.6375 17.3858L12.9085 17.1372Z" fill="#E3B742"/>
<path d="M16.7169 18.0693C16.7169 17.163 16.4481 16.277 15.9446 15.5234C15.441 14.7698 14.7254 14.1825 13.888 13.8356C13.0507 13.4888 12.1293 13.3981 11.2404 13.5749C10.3515 13.7517 9.53496 14.1881 8.89409 14.829C8.25322 15.4699 7.81678 16.2864 7.63996 17.1753C7.46315 18.0642 7.5539 18.9856 7.90073 19.8229C8.24757 20.6603 8.83491 21.3759 9.5885 21.8795C10.3421 22.383 11.2281 22.6518 12.1344 22.6518C13.3493 22.6503 14.514 22.167 15.373 21.3079C16.2321 20.4489 16.7154 19.2842 16.7169 18.0693ZM12.1344 21.5217C11.4516 21.5217 10.7841 21.3192 10.2163 20.9398C9.64859 20.5605 9.20609 20.0213 8.94479 19.3905C8.68349 18.7596 8.61512 18.0655 8.74833 17.3958C8.88154 16.7261 9.21035 16.1109 9.69317 15.6281C10.176 15.1453 10.7912 14.8164 11.4609 14.6832C12.1306 14.55 12.8247 14.6184 13.4556 14.8797C14.0864 15.141 14.6256 15.5835 15.0049 16.1512C15.3843 16.719 15.5868 17.3865 15.5868 18.0693C15.5853 18.9845 15.2211 19.8617 14.5739 20.5088C13.9268 21.156 13.0496 21.5202 12.1344 21.5217Z" fill="#E3B742"/>
<path d="M49.1428 17.1295C49.3013 16.9873 49.4231 16.8089 49.4979 16.6095C49.5727 16.4101 49.5982 16.1956 49.5722 15.9843C49.552 15.7905 49.4749 15.6072 49.3505 15.4573C49.2261 15.3074 49.06 15.1978 48.8733 15.1422C48.7172 15.2844 48.5969 15.4615 48.5222 15.6591C48.4476 15.8566 48.4207 16.0691 48.4439 16.279C48.4636 16.4738 48.5405 16.6585 48.6648 16.8099C48.7892 16.9612 48.9555 17.0724 49.1428 17.1295ZM49.6565 17.5926C49.4846 17.7362 49.3497 17.919 49.2633 18.1257C49.1768 18.3323 49.1413 18.5567 49.1596 18.7799C49.3777 18.799 49.5974 18.7717 49.8042 18.6998C50.011 18.6279 50.2002 18.5129 50.3593 18.3626C50.5184 18.2122 50.6439 18.0298 50.7274 17.8274C50.8109 17.625 50.8505 17.4072 50.8438 17.1884C50.6281 17.1593 50.4086 17.1807 50.2025 17.2508C49.9965 17.3209 49.8096 17.4379 49.6565 17.5926ZM48.9491 18.7378C49.005 18.5365 49.0039 18.3236 48.9459 18.1229C48.8879 17.9222 48.7753 17.7415 48.6207 17.601C48.4661 17.4581 48.2755 17.3598 48.0693 17.3168C47.8632 17.2738 47.6492 17.2876 47.4503 17.3568C47.3914 17.5572 47.3902 17.7702 47.4468 17.9712C47.5034 18.1723 47.6155 18.3533 47.7702 18.4936C47.9267 18.6365 48.1187 18.7346 48.3262 18.7775C48.5336 18.8205 48.7488 18.8068 48.9491 18.7378ZM48.9575 20.1946C48.7479 20.3268 48.5718 20.5059 48.4432 20.7178C48.3146 20.9297 48.237 21.1685 48.2165 21.4155C48.4481 21.4884 48.6938 21.5042 48.9327 21.4617C49.1717 21.4191 49.3969 21.3195 49.5891 21.1713C49.7974 21.0377 49.9725 20.8582 50.1009 20.6466C50.2293 20.435 50.3077 20.1969 50.3301 19.9504C50.0988 19.8754 49.8527 19.8584 49.6133 19.901C49.374 19.9436 49.1488 20.0444 48.9575 20.1946ZM47.9976 21.3229C48.0931 21.114 48.1302 20.8831 48.105 20.6548C48.0798 20.4264 47.9932 20.2092 47.8545 20.0261C47.717 19.8442 47.5314 19.7044 47.3185 19.6225C47.1057 19.5407 46.8742 19.5201 46.6503 19.563C46.5501 19.769 46.5073 19.9982 46.5266 20.2265C46.5458 20.4547 46.6264 20.6735 46.7598 20.8598C46.8999 21.0476 47.0911 21.1912 47.3106 21.2733C47.5301 21.3554 47.7686 21.3726 47.9976 21.3229ZM48.2334 22.8976C47.9758 22.9974 47.7439 23.1535 47.5544 23.3546C47.365 23.5557 47.223 23.7965 47.1387 24.0596C47.3561 24.1994 47.6055 24.2813 47.8635 24.2975C48.1214 24.3137 48.3792 24.2637 48.6123 24.1522C48.8699 24.0524 49.1018 23.8962 49.2912 23.6952C49.4806 23.4941 49.6227 23.2532 49.707 22.9902C49.4906 22.8481 49.2408 22.7648 48.9825 22.7486C48.7241 22.7323 48.4659 22.7837 48.2334 22.8976ZM45.8251 23.0828C45.9073 23.3168 46.0565 23.5214 46.2541 23.6711C46.4518 23.8209 46.6891 23.9091 46.9366 23.9249C47.0919 23.7163 47.1925 23.4722 47.2293 23.2148C47.266 22.9574 47.2378 22.6949 47.1471 22.4513C47.0635 22.2166 46.9127 22.0118 46.7136 21.8621C46.5145 21.7124 46.2758 21.6244 46.0272 21.6092C45.8712 21.8175 45.7707 22.062 45.7354 22.3198C45.7 22.5777 45.7309 22.8402 45.8251 23.0828ZM46.7598 25.1374C46.4915 25.2068 46.2421 25.335 46.0294 25.5127C45.8168 25.6904 45.6464 25.9131 45.5304 26.1647C45.7201 26.3358 45.9523 26.4526 46.2027 26.503C46.4531 26.5534 46.7124 26.5354 46.9535 26.451C47.2224 26.3836 47.473 26.2573 47.6871 26.081C47.9012 25.9048 48.0734 25.6832 48.1913 25.4321C48.0002 25.2605 47.767 25.1428 47.5154 25.091C47.2639 25.0392 47.0031 25.0552 46.7598 25.1374ZM44.823 23.5459C44.6408 23.7366 44.5086 23.9694 44.438 24.2236C44.3675 24.4777 44.3609 24.7454 44.4189 25.0027C44.4661 25.2437 44.5831 25.4655 44.7552 25.6406C44.9274 25.8157 45.1471 25.9365 45.3872 25.9879C45.5637 25.7951 45.6928 25.5638 45.7644 25.3124C45.8361 25.061 45.8482 24.7964 45.7998 24.5396C45.7534 24.296 45.6359 24.0715 45.462 23.8947C45.2882 23.7178 45.0658 23.5965 44.823 23.5459ZM44.6967 27.2089C44.3988 27.1848 44.0993 27.2301 43.8217 27.3411C43.5441 27.4522 43.296 27.6259 43.0968 27.8489C43.1948 28.107 43.3671 28.3303 43.5919 28.4907C43.8167 28.651 44.0839 28.7412 44.3599 28.7499C44.6586 28.7729 44.9585 28.7263 45.2361 28.6138C45.5137 28.5013 45.7614 28.3259 45.9598 28.1015C45.8596 27.8455 45.6865 27.6246 45.462 27.4659C45.2375 27.3073 44.9715 27.2179 44.6967 27.2089ZM42.4569 26.1311C42.399 26.4008 42.4198 26.6815 42.5168 26.9397C42.6138 27.198 42.783 27.4229 43.0042 27.5878C43.2662 27.4363 43.4903 27.2271 43.6595 26.9762C43.8287 26.7253 43.9387 26.4392 43.981 26.1395C44.0368 25.8698 44.015 25.5897 43.9181 25.3319C43.8213 25.074 43.6533 24.849 43.4337 24.6827C43.1717 24.8343 42.9476 25.0434 42.7784 25.2943C42.6091 25.5453 42.4992 25.8314 42.4569 26.1311ZM42.0022 28.6235C41.6752 28.5962 41.3464 28.646 41.0423 28.7688C40.7381 28.8917 40.4669 29.0842 40.2507 29.3309C40.3618 29.609 40.5516 29.8488 40.7969 30.0208C41.0422 30.1928 41.3323 30.2895 41.6316 30.2992C41.9596 30.324 42.2888 30.2731 42.5939 30.1504C42.8991 30.0278 43.172 29.8367 43.3915 29.5919C43.2798 29.3125 43.0887 29.0718 42.8418 28.8997C42.5949 28.7277 42.303 28.6316 42.0022 28.6235ZM41.219 27.4531C41.2838 27.1572 41.2619 26.8488 41.1559 26.565C41.0498 26.2813 40.8642 26.0341 40.6212 25.8532C40.3321 26.0167 40.0845 26.2445 39.8976 26.519C39.7107 26.7935 39.5895 27.1074 39.5433 27.4362C39.483 27.7334 39.5071 28.0415 39.6127 28.3257C39.7184 28.61 39.9014 28.859 40.1412 29.0446C40.4297 28.8783 40.6766 28.6486 40.8633 28.3729C41.0501 28.0972 41.1717 27.7827 41.219 27.4531ZM29.9186 16.279C29.9432 16.0677 29.917 15.8536 29.8423 15.6545C29.7676 15.4553 29.6466 15.2768 29.4892 15.1338C29.3025 15.1893 29.1365 15.299 29.0121 15.4489C28.8877 15.5987 28.8105 15.7821 28.7903 15.9758C28.7643 16.1872 28.7898 16.4017 28.8646 16.6011C28.9394 16.8005 29.0612 16.9789 29.2197 17.121C29.4059 17.0645 29.5713 16.9546 29.6955 16.8049C29.8198 16.6552 29.8974 16.4723 29.9186 16.279ZM29.2029 18.7799C29.2213 18.5567 29.1857 18.3323 29.0993 18.1257C29.0128 17.919 28.878 17.7362 28.7061 17.5926C28.5494 17.433 28.3568 17.313 28.1445 17.2427C27.9321 17.1724 27.7061 17.1538 27.4851 17.1884C27.4667 17.4116 27.5023 17.636 27.5887 17.8426C27.6752 18.0493 27.81 18.2321 27.9819 18.3757C28.1378 18.5365 28.3302 18.6572 28.5428 18.7276C28.7554 18.798 28.9819 18.8159 29.2029 18.7799ZM29.4134 18.7378C29.6137 18.8068 29.8289 18.8205 30.0364 18.7775C30.2438 18.7346 30.4359 18.6365 30.5923 18.4936C30.747 18.3533 30.8591 18.1723 30.9157 17.9712C30.9723 17.7702 30.9711 17.5572 30.9123 17.3568C30.7133 17.2876 30.4994 17.2738 30.2932 17.3168C30.0871 17.3598 29.8965 17.4581 29.7418 17.601C29.5872 17.7415 29.4746 17.9222 29.4166 18.1229C29.3587 18.3236 29.3575 18.5365 29.4134 18.7378ZM30.146 21.4155C30.1255 21.1685 30.0479 20.9297 29.9193 20.7178C29.7907 20.5059 29.6146 20.3268 29.405 20.1946C29.213 20.0458 28.9875 19.9465 28.7481 19.9054C28.5088 19.8643 28.263 19.8826 28.0324 19.9588C28.056 20.2038 28.135 20.4403 28.2634 20.6503C28.3917 20.8604 28.5662 21.0385 28.7734 21.1713C28.9657 21.3195 29.1908 21.4191 29.4298 21.4617C29.6688 21.5042 29.9144 21.4884 30.146 21.4155ZM30.3649 21.3229C30.5939 21.3726 30.8324 21.3554 31.0519 21.2733C31.2714 21.1912 31.4626 21.0476 31.6027 20.8598C31.7415 20.6767 31.8281 20.4595 31.8533 20.2312C31.8785 20.0028 31.8414 19.7719 31.7459 19.563C31.522 19.5201 31.2905 19.5407 31.0777 19.6225C30.8648 19.7044 30.6792 19.8442 30.5418 20.0261C30.3975 20.206 30.3048 20.4216 30.2737 20.65C30.2425 20.8784 30.2741 21.111 30.3649 21.3229ZM31.2238 24.0596C31.1395 23.7965 30.9975 23.5557 30.8081 23.3546C30.6187 23.1535 30.3867 22.9974 30.1291 22.8976C29.8966 22.7837 29.6385 22.7323 29.3801 22.7486C29.1217 22.7648 28.872 22.8481 28.6555 22.9902C28.7398 23.2532 28.8819 23.4941 29.0713 23.6952C29.2607 23.8962 29.4927 24.0524 29.7502 24.1522C29.9834 24.2637 30.2411 24.3137 30.4991 24.2975C30.757 24.2813 31.0065 24.1994 31.2238 24.0596ZM31.2154 22.4344C31.1247 22.6781 31.0965 22.9406 31.1333 23.198C31.17 23.4554 31.2706 23.6995 31.4259 23.908C31.6734 23.8923 31.9108 23.804 32.1084 23.6543C32.3061 23.5045 32.4553 23.2999 32.5374 23.066C32.6316 22.8234 32.6625 22.5608 32.6271 22.303C32.5918 22.0452 32.4914 21.8006 32.3353 21.5924C32.0867 21.6076 31.848 21.6955 31.6489 21.8452C31.4498 21.9949 31.2991 22.1998 31.2154 22.4344ZM31.6027 25.1374C31.3594 25.0552 31.0986 25.0392 30.8471 25.091C30.5956 25.1428 30.3623 25.2605 30.1713 25.4321C30.2891 25.6832 30.4613 25.9048 30.6754 26.081C30.8895 26.2573 31.1401 26.3836 31.4091 26.451C31.6501 26.5354 31.9095 26.5534 32.1599 26.503C32.4103 26.4526 32.6425 26.3358 32.8322 26.1647C32.7162 25.9131 32.5457 25.6904 32.3331 25.5127C32.1205 25.335 31.871 25.2068 31.6027 25.1374ZM32.9753 25.9879C33.2154 25.9365 33.4352 25.8157 33.6073 25.6406C33.7794 25.4655 33.8964 25.2437 33.9437 25.0027C34.0016 24.7454 33.995 24.4777 33.9245 24.2236C33.854 23.9694 33.7217 23.7366 33.5395 23.5459C33.2967 23.5965 33.0743 23.7178 32.9005 23.8947C32.7266 24.0715 32.6091 24.296 32.5627 24.5396C32.5144 24.7964 32.5265 25.061 32.5981 25.3124C32.6697 25.5638 32.7988 25.7951 32.9753 25.9879ZM35.2657 27.8489C35.0665 27.6259 34.8184 27.4522 34.5408 27.3411C34.2633 27.2301 33.9638 27.1848 33.6658 27.2089C33.3968 27.2137 33.1347 27.2956 32.9109 27.4448C32.687 27.5941 32.5106 27.8045 32.4027 28.0509C32.6011 28.2754 32.8488 28.4508 33.1264 28.5633C33.404 28.6758 33.704 28.7223 34.0026 28.6993C34.2728 28.6948 34.536 28.6121 34.7601 28.4612C34.9843 28.3102 35.1599 28.0975 35.2657 27.8489ZM35.3583 27.5878C35.5795 27.4229 35.7487 27.198 35.8457 26.9397C35.9428 26.6815 35.9636 26.4008 35.9057 26.1311C35.868 25.8351 35.7645 25.5514 35.6028 25.3008C35.441 25.0501 35.2251 24.8389 34.971 24.6827C34.7514 24.849 34.5834 25.074 34.4865 25.3319C34.3896 25.5897 34.3678 25.8698 34.4236 26.1395C34.4613 26.4354 34.5648 26.7191 34.7265 26.9698C34.8883 27.2204 35.1042 27.4316 35.3583 27.5878ZM34.971 29.5919C35.1898 29.8382 35.4623 30.0309 35.7675 30.155C36.0726 30.2791 36.4023 30.3314 36.7309 30.3077C37.0303 30.2979 37.3203 30.2012 37.5656 30.0292C37.8109 29.8572 38.0007 29.6175 38.1118 29.3393C37.8956 29.0926 37.6245 28.9001 37.3203 28.7772C37.0161 28.6544 36.6873 28.6046 36.3604 28.632C36.0605 28.6394 35.7693 28.7341 35.5225 28.9047C35.2757 29.0752 35.084 29.314 34.971 29.5919ZM37.7413 25.8532C37.4983 26.0341 37.3127 26.2813 37.2067 26.565C37.1006 26.8488 37.0787 27.1572 37.1435 27.4531C37.1908 27.7827 37.3125 28.0972 37.4992 28.3729C37.6859 28.6486 37.9328 28.8783 38.2213 29.0446C38.4611 28.859 38.6441 28.61 38.7498 28.3257C38.8555 28.0415 38.8795 27.7334 38.8192 27.4362C38.773 27.1074 38.6518 26.7935 38.4649 26.519C38.278 26.2445 38.0304 26.0167 37.7413 25.8532Z" fill="#E3B742"/>
<path d="M40.3349 15.5714L39.1813 13.2305L38.0277 15.5714L35.451 15.9419L37.3203 17.7607L36.874 20.329L39.1813 19.1164L41.4885 20.329L41.0422 17.7607L42.9116 15.9419L40.3349 15.5714Z" fill="#E3B742"/>
<path d="M46.0103 16.9609C46.0103 15.6103 45.6098 14.2899 44.8594 13.1669C44.109 12.0439 43.0425 11.1685 41.7946 10.6517C40.5468 10.1348 39.1737 9.99956 37.849 10.2631C36.5243 10.5266 35.3074 11.177 34.3524 12.132C33.3973 13.0871 32.7469 14.3039 32.4834 15.6286C32.2199 16.9533 32.3551 18.3264 32.872 19.5743C33.3889 20.8222 34.2642 21.8887 35.3872 22.6391C36.5103 23.3895 37.8306 23.79 39.1813 23.79C40.9918 23.7878 42.7275 23.0676 44.0077 21.7874C45.2879 20.5071 46.0081 18.7714 46.0103 16.9609ZM39.1813 22.1059C38.1637 22.1059 37.169 21.8041 36.3229 21.2388C35.4768 20.6735 34.8173 19.8699 34.4279 18.9298C34.0385 17.9897 33.9366 16.9552 34.1351 15.9572C34.3337 14.9592 34.8237 14.0424 35.5432 13.3229C36.2628 12.6033 37.1795 12.1133 38.1775 11.9148C39.1756 11.7163 40.21 11.8182 41.1502 12.2076C42.0903 12.597 42.8938 13.2564 43.4591 14.1025C44.0245 14.9486 44.3262 15.9433 44.3262 16.9609C44.324 18.3248 43.7812 19.6321 42.8168 20.5965C41.8525 21.5609 40.5451 22.1037 39.1813 22.1059Z" fill="#E3B742"/>
<path d="M88.6049 16.0393C88.8175 15.8487 88.9808 15.6095 89.081 15.3422C89.1813 15.0749 89.2155 14.7873 89.1807 14.504C89.1536 14.2442 89.0501 13.9984 88.8833 13.7975C88.7166 13.5965 88.494 13.4495 88.2437 13.3751C88.0343 13.5657 87.873 13.8031 87.773 14.068C87.6729 14.3329 87.6369 14.6176 87.668 14.8991C87.6944 15.1603 87.7974 15.4079 87.9641 15.6108C88.1308 15.8137 88.3538 15.9627 88.6049 16.0393ZM89.2936 16.6602C89.0632 16.8527 88.8824 17.0978 88.7665 17.3748C88.6505 17.6518 88.6029 17.9527 88.6275 18.2519C88.9199 18.2776 89.2144 18.241 89.4917 18.1446C89.7689 18.0481 90.0225 17.894 90.2358 17.6924C90.4492 17.4908 90.6174 17.2463 90.7293 16.975C90.8413 16.7036 90.8944 16.4117 90.8853 16.1183C90.5962 16.0793 90.3019 16.1079 90.0257 16.202C89.7495 16.296 89.4989 16.4528 89.2936 16.6602ZM88.3453 18.1955C88.4202 17.9256 88.4187 17.6402 88.341 17.3711C88.2632 17.1021 88.1123 16.8598 87.905 16.6715C87.6977 16.4798 87.4422 16.3481 87.1658 16.2905C86.8894 16.2328 86.6025 16.2513 86.3358 16.3441C86.2569 16.6128 86.2553 16.8982 86.3312 17.1678C86.4071 17.4373 86.5574 17.68 86.7648 17.8681C86.9746 18.0597 87.232 18.1911 87.5101 18.2488C87.7882 18.3064 88.0768 18.288 88.3453 18.1955ZM88.3566 20.1485C88.0755 20.3257 87.8395 20.5659 87.6671 20.8499C87.4947 21.134 87.3906 21.4543 87.3632 21.7854C87.6736 21.883 88.003 21.9042 88.3233 21.8472C88.6437 21.7902 88.9456 21.6567 89.2033 21.458C89.4826 21.2788 89.7173 21.0382 89.8894 20.7546C90.0616 20.4709 90.1667 20.1516 90.1967 19.8211C89.8867 19.7206 89.5567 19.6978 89.2358 19.7549C88.9149 19.812 88.6129 19.9472 88.3566 20.1485ZM87.0696 21.6612C87.1977 21.3811 87.2474 21.0716 87.2137 20.7655C87.1799 20.4594 87.0638 20.1681 86.8777 19.9227C86.6935 19.6788 86.4446 19.4914 86.1593 19.3816C85.8739 19.2719 85.5636 19.2443 85.2634 19.3018C85.129 19.5779 85.0717 19.8853 85.0975 20.1913C85.1233 20.4973 85.2313 20.7906 85.4101 21.0403C85.598 21.2922 85.8544 21.4846 86.1486 21.5947C86.4429 21.7048 86.7626 21.7279 87.0696 21.6612ZM87.3857 23.7723C87.0404 23.9061 86.7294 24.1155 86.4755 24.385C86.2216 24.6546 86.0312 24.9775 85.9182 25.3302C86.2096 25.5176 86.544 25.6274 86.8898 25.6491C87.2356 25.6708 87.5812 25.6038 87.8937 25.4544C88.239 25.3205 88.55 25.1112 88.804 24.8416C89.0579 24.5721 89.2483 24.2491 89.3613 23.8965C89.0712 23.706 88.7364 23.5943 88.39 23.5725C88.0436 23.5508 87.6975 23.6196 87.3857 23.7723ZM84.1571 24.0206C84.2672 24.3343 84.4672 24.6086 84.7322 24.8094C84.9972 25.0101 85.3154 25.1284 85.6472 25.1495C85.8554 24.87 85.9903 24.5427 86.0396 24.1976C86.0889 23.8526 86.051 23.5007 85.9294 23.174C85.8173 22.8594 85.6152 22.5847 85.3483 22.384C85.0813 22.1833 84.7613 22.0655 84.428 22.0451C84.2188 22.3243 84.0842 22.6521 84.0368 22.9978C83.9894 23.3434 84.0308 23.6954 84.1571 24.0206ZM85.4101 26.7752C85.0505 26.8682 84.7161 27.0401 84.431 27.2783C84.146 27.5165 83.9174 27.8151 83.7619 28.1524C84.0162 28.3817 84.3276 28.5384 84.6633 28.6059C84.9989 28.6734 85.3466 28.6494 85.6698 28.5363C86.0304 28.4459 86.3664 28.2765 86.6534 28.0402C86.9404 27.804 87.1713 27.5068 87.3293 27.1703C87.0732 26.9402 86.7604 26.7823 86.4232 26.7129C86.086 26.6435 85.7363 26.665 85.4101 26.7752ZM82.8137 24.6415C82.5694 24.8972 82.392 25.2093 82.2975 25.55C82.203 25.8907 82.1941 26.2496 82.2718 26.5945C82.3352 26.9176 82.492 27.2149 82.7228 27.4497C82.9535 27.6845 83.2481 27.8464 83.57 27.9154C83.8066 27.6568 83.9797 27.3468 84.0757 27.0098C84.1718 26.6728 84.188 26.318 84.1232 25.9736C84.061 25.647 83.9034 25.3462 83.6703 25.1091C83.4373 24.872 83.1392 24.7093 82.8137 24.6415ZM82.6443 29.5523C82.2448 29.52 81.8433 29.5807 81.4712 29.7296C81.0991 29.8784 80.7665 30.1114 80.4994 30.4103C80.6308 30.7563 80.8617 31.0557 81.1631 31.2707C81.4645 31.4857 81.8228 31.6066 82.1928 31.6182C82.5932 31.649 82.9953 31.5866 83.3674 31.4358C83.7396 31.2849 84.0717 31.0498 84.3377 30.7489C84.2033 30.4058 83.9713 30.1096 83.6703 29.8969C83.3693 29.6842 83.0126 29.5644 82.6443 29.5523ZM79.6414 28.1073C79.5638 28.4689 79.5917 28.8452 79.7218 29.1915C79.8519 29.5377 80.0787 29.8393 80.3752 30.0603C80.7265 29.8571 81.0269 29.5767 81.2537 29.2403C81.4806 28.9039 81.628 28.5203 81.6848 28.1186C81.7596 27.757 81.7304 27.3816 81.6005 27.0359C81.4706 26.6902 81.2454 26.3884 80.951 26.1656C80.5997 26.3687 80.2993 26.6491 80.0725 26.9855C79.8456 27.3219 79.6982 27.7055 79.6414 28.1073ZM79.0318 31.4488C78.5935 31.4122 78.1528 31.4789 77.7449 31.6436C77.3371 31.8083 76.9736 32.0664 76.6837 32.3971C76.8327 32.7701 77.0872 33.0915 77.416 33.322C77.7448 33.5526 78.1337 33.6823 78.5351 33.6954C78.9747 33.7285 79.4161 33.6603 79.8252 33.4959C80.2343 33.3314 80.6001 33.0753 80.8945 32.7471C80.7447 32.3724 80.4885 32.0498 80.1575 31.8191C79.8265 31.5884 79.4352 31.4597 79.0318 31.4488ZM77.9819 29.8797C78.0688 29.4829 78.0394 29.0695 77.8973 28.6891C77.7551 28.3086 77.5062 27.9773 77.1804 27.7347C76.7929 27.9539 76.4609 28.2593 76.2104 28.6274C75.9598 28.9954 75.7973 29.4162 75.7354 29.8571C75.6546 30.2555 75.6868 30.6686 75.8284 31.0496C75.9701 31.4306 76.2155 31.7645 76.5369 32.0133C76.9237 31.7904 77.2547 31.4824 77.5051 31.1128C77.7554 30.7432 77.9185 30.3215 77.9819 29.8797ZM62.832 14.8991C62.8649 14.6158 62.8298 14.3288 62.7297 14.0618C62.6296 13.7948 62.4673 13.5556 62.2563 13.3638C62.006 13.4382 61.7834 13.5852 61.6166 13.7862C61.4499 13.9871 61.3464 14.233 61.3193 14.4927C61.2845 14.776 61.3187 15.0636 61.4189 15.3309C61.5192 15.5982 61.6825 15.8374 61.895 16.028C62.1446 15.9522 62.3664 15.8048 62.5329 15.6041C62.6995 15.4035 62.8035 15.1583 62.832 14.8991ZM61.8725 18.2519C61.8971 17.9527 61.8494 17.6518 61.7335 17.3748C61.6176 17.0978 61.4368 16.8527 61.2064 16.6602C60.9963 16.4462 60.7382 16.2854 60.4535 16.1911C60.1688 16.0969 59.8658 16.0719 59.5695 16.1183C59.5449 16.4176 59.5925 16.7184 59.7084 16.9954C59.8243 17.2724 60.0051 17.5175 60.2355 17.7101C60.4445 17.9256 60.7025 18.0875 60.9875 18.1818C61.2725 18.2762 61.5761 18.3002 61.8725 18.2519ZM62.1547 18.1955C62.4232 18.288 62.7117 18.3064 62.9899 18.2488C63.268 18.1911 63.5254 18.0597 63.7352 17.8681C63.9426 17.68 64.0929 17.4373 64.1688 17.1678C64.2447 16.8982 64.243 16.6128 64.1641 16.3441C63.8975 16.2513 63.6106 16.2328 63.3342 16.2905C63.0578 16.3481 62.8023 16.4798 62.595 16.6715C62.3877 16.8598 62.2368 17.1021 62.159 17.3711C62.0813 17.6402 62.0798 17.9256 62.1547 18.1955ZM63.1368 21.7854C63.1094 21.4543 63.0053 21.134 62.8329 20.8499C62.6605 20.5659 62.4245 20.3257 62.1434 20.1485C61.886 19.9491 61.5836 19.816 61.2628 19.7608C60.9419 19.7057 60.6124 19.7303 60.3033 19.8324C60.3349 20.1609 60.4408 20.4779 60.6129 20.7596C60.785 21.0412 61.0188 21.28 61.2967 21.458C61.5544 21.6567 61.8563 21.7902 62.1766 21.8472C62.497 21.9042 62.8264 21.883 63.1368 21.7854ZM63.4303 21.6612C63.7374 21.7279 64.0571 21.7048 64.3514 21.5947C64.6456 21.4846 64.902 21.2922 65.0898 21.0403C65.2759 20.7949 65.392 20.5037 65.4258 20.1976C65.4596 19.8915 65.4098 19.5819 65.2818 19.3018C64.9815 19.2443 64.6712 19.2719 64.3859 19.3816C64.1006 19.4914 63.8517 19.6788 63.6674 19.9227C63.474 20.1638 63.3498 20.4529 63.308 20.7591C63.2663 21.0654 63.3085 21.3772 63.4303 21.6612ZM64.5818 25.3302C64.4688 24.9775 64.2784 24.6546 64.0245 24.385C63.7705 24.1155 63.4595 23.9061 63.1143 23.7723C62.8025 23.6196 62.4564 23.5508 62.11 23.5725C61.7636 23.5943 61.4288 23.706 61.1387 23.8965C61.2517 24.2491 61.4421 24.5721 61.696 24.8416C61.95 25.1112 62.261 25.3205 62.6062 25.4544C62.9188 25.6038 63.2644 25.6708 63.6102 25.6491C63.956 25.6274 64.2904 25.5176 64.5818 25.3302ZM64.5705 23.1514C64.449 23.4781 64.4111 23.83 64.4604 24.1751C64.5097 24.5201 64.6446 24.8474 64.8528 25.127C65.1845 25.1059 65.5028 24.9875 65.7678 24.7868C66.0327 24.586 66.2328 24.3117 66.3429 23.9981C66.4692 23.6728 66.5106 23.3208 66.4632 22.9752C66.4158 22.6296 66.2812 22.3017 66.072 22.0225C65.7387 22.0429 65.4187 22.1608 65.1517 22.3615C64.8848 22.5621 64.6827 22.8368 64.5705 23.1514ZM65.0898 26.7752C64.7636 26.665 64.414 26.6435 64.0768 26.7129C63.7395 26.7823 63.4268 26.9402 63.1707 27.1703C63.3287 27.5068 63.5595 27.804 63.8466 28.0402C64.1336 28.2765 64.4696 28.4459 64.8302 28.5363C65.1534 28.6494 65.501 28.6734 65.8367 28.6059C66.1724 28.5384 66.4837 28.3817 66.738 28.1524C66.5826 27.8151 66.354 27.5165 66.069 27.2783C65.7839 27.0401 65.4495 26.8682 65.0898 26.7752ZM66.93 27.9154C67.2519 27.8464 67.5465 27.6845 67.7772 27.4497C68.008 27.2149 68.1648 26.9176 68.2282 26.5945C68.3059 26.2496 68.297 25.8907 68.2025 25.55C68.1079 25.2093 67.9306 24.8972 67.6863 24.6415C67.3608 24.7093 67.0627 24.872 66.8296 25.1091C66.5966 25.3462 66.439 25.647 66.3768 25.9736C66.312 26.318 66.3282 26.6728 66.4242 27.0098C66.5203 27.3468 66.6934 27.6568 66.93 27.9154ZM70.0006 30.4103C69.7335 30.1114 69.4009 29.8784 69.0288 29.7296C68.6567 29.5807 68.2551 29.52 67.8557 29.5523C67.495 29.5587 67.1437 29.6685 66.8436 29.8686C66.5434 30.0687 66.307 30.3507 66.1623 30.6812C66.4283 30.9821 66.7604 31.2172 67.1326 31.368C67.5047 31.5188 67.9068 31.5813 68.3072 31.5504C68.6695 31.5444 69.0222 31.4335 69.3228 31.2312C69.6233 31.0288 69.8588 30.7437 70.0006 30.4103ZM70.1248 30.0603C70.4213 29.8393 70.6481 29.5377 70.7782 29.1915C70.9083 28.8452 70.9362 28.4689 70.8585 28.1073C70.8081 27.7106 70.6693 27.3302 70.4525 26.9942C70.2356 26.6581 69.9462 26.375 69.6055 26.1656C69.311 26.3884 69.0858 26.6902 68.9559 27.0359C68.8261 27.3816 68.7968 27.757 68.8717 28.1186C68.9221 28.5153 69.0609 28.8957 69.2778 29.2317C69.4946 29.5677 69.784 29.8509 70.1248 30.0603ZM69.6055 32.7471C69.8988 33.0773 70.2641 33.3356 70.6733 33.502C71.0824 33.6684 71.5243 33.7384 71.9649 33.7067C72.3663 33.6936 72.7552 33.5639 73.084 33.3333C73.4128 33.1028 73.6673 32.7813 73.8163 32.4084C73.5264 32.0777 73.1629 31.8196 72.7551 31.6549C72.3472 31.4902 71.9064 31.4235 71.4682 31.4601C71.0661 31.4701 70.6757 31.5971 70.3448 31.8257C70.0139 32.0543 69.757 32.3745 69.6055 32.7471ZM73.3196 27.7347C72.9938 27.9773 72.7449 28.3086 72.6027 28.6891C72.4606 29.0695 72.4312 29.4829 72.518 29.8797C72.5815 30.3215 72.7446 30.7432 72.9949 31.1128C73.2452 31.4824 73.5763 31.7904 73.963 32.0133C74.2845 31.7645 74.5299 31.4306 74.6716 31.0496C74.8132 30.6686 74.8454 30.2555 74.7646 29.8571C74.7027 29.4162 74.5402 28.9954 74.2896 28.6274C74.039 28.2593 73.7071 27.9539 73.3196 27.7347Z" fill="#E3B742"/>
<path d="M76.7966 13.9504L75.25 10.812L73.7034 13.9504L70.2489 14.4471L72.7551 16.8855L72.1568 20.3287L75.25 18.7031L78.3432 20.3287L77.7449 16.8855L80.251 14.4471L76.7966 13.9504Z" fill="#E3B742"/>
<path d="M84.4054 15.8136C84.4054 14.0029 83.8685 12.2328 82.8625 10.7272C81.8565 9.22155 80.4266 8.04808 78.7536 7.35512C77.0807 6.66217 75.2398 6.48086 73.4639 6.83413C71.6879 7.18739 70.0565 8.05936 68.7761 9.33977C67.4957 10.6202 66.6238 12.2515 66.2705 14.0275C65.9172 15.8035 66.0985 17.6443 66.7915 19.3173C67.4844 20.9902 68.6579 22.4201 70.1635 23.4261C71.6691 24.4321 73.4392 24.9691 75.25 24.9691C77.6773 24.9661 80.0042 24.0005 81.7206 22.2842C83.4369 20.5679 84.4024 18.2409 84.4054 15.8136ZM75.25 22.7113C73.8858 22.7113 72.5522 22.3067 71.4179 21.5488C70.2836 20.7909 69.3995 19.7136 68.8774 18.4532C68.3554 17.1929 68.2188 15.806 68.4849 14.468C68.7511 13.13 69.408 11.9009 70.3727 10.9363C71.3373 9.97164 72.5663 9.3147 73.9043 9.04856C75.2424 8.78241 76.6292 8.919 77.8896 9.44107C79.15 9.96313 80.2272 10.8472 80.9852 11.9815C81.7431 13.1158 82.1476 14.4494 82.1476 15.8136C82.1446 17.6421 81.417 19.3948 80.1241 20.6877C78.8312 21.9806 77.0785 22.7083 75.25 22.7113Z" fill="#E3B742"/>
<path d="M121.28 17.1295C121.439 16.9873 121.561 16.8089 121.635 16.6095C121.71 16.4101 121.736 16.1956 121.71 15.9843C121.69 15.7905 121.612 15.6072 121.488 15.4573C121.364 15.3074 121.198 15.1978 121.011 15.1422C120.855 15.2844 120.734 15.4615 120.66 15.6591C120.585 15.8566 120.558 16.0691 120.581 16.279C120.601 16.4738 120.678 16.6585 120.802 16.8099C120.927 16.9612 121.093 17.0724 121.28 17.1295ZM121.794 17.5926C121.622 17.7362 121.487 17.919 121.401 18.1257C121.314 18.3323 121.279 18.5567 121.297 18.7799C121.515 18.799 121.735 18.7717 121.942 18.6998C122.148 18.6279 122.338 18.5129 122.497 18.3626C122.656 18.2122 122.781 18.0298 122.865 17.8274C122.948 17.625 122.988 17.4072 122.981 17.1884C122.766 17.1593 122.546 17.1807 122.34 17.2508C122.134 17.3209 121.947 17.4379 121.794 17.5926ZM121.087 18.7378C121.142 18.5365 121.141 18.3236 121.083 18.1229C121.025 17.9222 120.913 17.7415 120.758 17.601C120.604 17.4581 120.413 17.3598 120.207 17.3168C120.001 17.2738 119.787 17.2876 119.588 17.3568C119.529 17.5572 119.528 17.7702 119.584 17.9712C119.641 18.1723 119.753 18.3533 119.908 18.4936C120.064 18.6365 120.256 18.7346 120.464 18.7775C120.671 18.8205 120.886 18.8068 121.087 18.7378ZM121.095 20.1946C120.885 20.3268 120.709 20.5059 120.581 20.7178C120.452 20.9297 120.375 21.1685 120.354 21.4155C120.586 21.4884 120.831 21.5042 121.07 21.4617C121.309 21.4191 121.534 21.3195 121.727 21.1713C121.935 21.0377 122.11 20.8582 122.238 20.6466C122.367 20.435 122.445 20.1969 122.468 19.9504C122.236 19.8754 121.99 19.8584 121.751 19.901C121.511 19.9436 121.286 20.0444 121.095 20.1946ZM120.135 21.3229C120.231 21.114 120.268 20.8831 120.243 20.6548C120.217 20.4264 120.131 20.2092 119.992 20.0261C119.854 19.8442 119.669 19.7044 119.456 19.6225C119.243 19.5407 119.012 19.5201 118.788 19.563C118.688 19.769 118.645 19.9982 118.664 20.2265C118.683 20.4547 118.764 20.6735 118.897 20.8598C119.037 21.0476 119.229 21.1912 119.448 21.2733C119.668 21.3554 119.906 21.3726 120.135 21.3229ZM120.371 22.8976C120.113 22.9974 119.881 23.1535 119.692 23.3546C119.503 23.5557 119.36 23.7965 119.276 24.0596C119.494 24.1994 119.743 24.2813 120.001 24.2975C120.259 24.3137 120.517 24.2637 120.75 24.1522C121.007 24.0524 121.239 23.8962 121.429 23.6952C121.618 23.4941 121.76 23.2532 121.844 22.9902C121.628 22.8481 121.378 22.7648 121.12 22.7486C120.862 22.7323 120.603 22.7837 120.371 22.8976ZM117.963 23.0828C118.045 23.3168 118.194 23.5214 118.392 23.6711C118.589 23.8209 118.827 23.9091 119.074 23.9249C119.229 23.7163 119.33 23.4722 119.367 23.2148C119.404 22.9574 119.375 22.6949 119.285 22.4513C119.201 22.2166 119.05 22.0118 118.851 21.8621C118.652 21.7124 118.413 21.6244 118.165 21.6092C118.009 21.8175 117.908 22.062 117.873 22.3198C117.838 22.5777 117.868 22.8402 117.963 23.0828ZM118.897 25.1374C118.629 25.2068 118.38 25.335 118.167 25.5127C117.954 25.6904 117.784 25.9131 117.668 26.1647C117.858 26.3358 118.09 26.4526 118.34 26.503C118.591 26.5534 118.85 26.5354 119.091 26.451C119.36 26.3836 119.611 26.2573 119.825 26.081C120.039 25.9048 120.211 25.6832 120.329 25.4321C120.138 25.2605 119.904 25.1428 119.653 25.091C119.401 25.0392 119.141 25.0552 118.897 25.1374ZM116.961 23.5459C116.778 23.7366 116.646 23.9694 116.576 24.2236C116.505 24.4777 116.498 24.7454 116.556 25.0027C116.604 25.2437 116.721 25.4655 116.893 25.6406C117.065 25.8157 117.285 25.9365 117.525 25.9879C117.701 25.7951 117.83 25.5638 117.902 25.3124C117.974 25.061 117.986 24.7964 117.937 24.5396C117.891 24.296 117.773 24.0715 117.6 23.8947C117.426 23.7178 117.203 23.5965 116.961 23.5459ZM116.834 27.2089C116.536 27.1848 116.237 27.2301 115.959 27.3411C115.682 27.4522 115.434 27.6259 115.234 27.8489C115.332 28.107 115.505 28.3303 115.729 28.4907C115.954 28.651 116.221 28.7412 116.497 28.7499C116.796 28.7729 117.096 28.7263 117.374 28.6138C117.651 28.5013 117.899 28.3259 118.097 28.1015C117.997 27.8455 117.824 27.6246 117.599 27.4659C117.375 27.3073 117.109 27.2179 116.834 27.2089ZM114.594 26.1311C114.536 26.4008 114.557 26.6815 114.654 26.9397C114.751 27.198 114.92 27.4229 115.142 27.5878C115.404 27.4363 115.628 27.2271 115.797 26.9762C115.966 26.7253 116.076 26.4392 116.118 26.1395C116.174 25.8698 116.152 25.5897 116.056 25.3319C115.959 25.074 115.791 24.849 115.571 24.6827C115.309 24.8343 115.085 25.0434 114.916 25.2943C114.747 25.5453 114.637 25.8314 114.594 26.1311ZM114.14 28.6235C113.813 28.5962 113.484 28.646 113.18 28.7688C112.876 28.8917 112.604 29.0842 112.388 29.3309C112.499 29.609 112.689 29.8488 112.934 30.0208C113.18 30.1928 113.47 30.2895 113.769 30.2992C114.097 30.324 114.426 30.2731 114.731 30.1504C115.037 30.0278 115.309 29.8367 115.529 29.5919C115.417 29.3125 115.226 29.0718 114.979 28.8997C114.732 28.7277 114.44 28.6316 114.14 28.6235ZM113.357 27.4531C113.421 27.1572 113.399 26.8488 113.293 26.565C113.187 26.2813 113.002 26.0341 112.759 25.8532C112.47 26.0167 112.222 26.2445 112.035 26.519C111.848 26.7935 111.727 27.1074 111.681 27.4362C111.621 27.7334 111.645 28.0415 111.75 28.3257C111.856 28.61 112.039 28.859 112.279 29.0446C112.567 28.8783 112.814 28.6486 113.001 28.3729C113.188 28.0972 113.309 27.7827 113.357 27.4531ZM102.056 16.279C102.081 16.0677 102.054 15.8536 101.98 15.6545C101.905 15.4553 101.784 15.2768 101.627 15.1338C101.44 15.1893 101.274 15.299 101.15 15.4489C101.025 15.5987 100.948 15.7821 100.928 15.9758C100.902 16.1872 100.927 16.4017 101.002 16.6011C101.077 16.8005 101.199 16.9789 101.357 17.121C101.543 17.0645 101.709 16.9546 101.833 16.8049C101.957 16.6552 102.035 16.4723 102.056 16.279ZM101.34 18.7799C101.359 18.5567 101.323 18.3323 101.237 18.1257C101.15 17.919 101.015 17.7362 100.844 17.5926C100.687 17.433 100.494 17.313 100.282 17.2427C100.07 17.1724 99.8436 17.1538 99.6226 17.1884C99.6042 17.4116 99.6397 17.636 99.7262 17.8426C99.8127 18.0493 99.9475 18.2321 100.119 18.3757C100.275 18.5365 100.468 18.6572 100.68 18.7276C100.893 18.798 101.119 18.8159 101.34 18.7799ZM101.551 18.7378C101.751 18.8068 101.966 18.8205 102.174 18.7775C102.381 18.7346 102.573 18.6365 102.73 18.4936C102.885 18.3533 102.997 18.1723 103.053 17.9712C103.11 17.7702 103.109 17.5572 103.05 17.3568C102.851 17.2876 102.637 17.2738 102.431 17.3168C102.225 17.3598 102.034 17.4581 101.879 17.601C101.725 17.7415 101.612 17.9222 101.554 18.1229C101.496 18.3236 101.495 18.5365 101.551 18.7378ZM102.283 21.4155C102.263 21.1685 102.185 20.9297 102.057 20.7178C101.928 20.5059 101.752 20.3268 101.542 20.1946C101.351 20.0458 101.125 19.9465 100.886 19.9054C100.646 19.8643 100.4 19.8826 100.17 19.9588C100.194 20.2038 100.272 20.4403 100.401 20.6503C100.529 20.8604 100.704 21.0385 100.911 21.1713C101.103 21.3195 101.328 21.4191 101.567 21.4617C101.806 21.5042 102.052 21.4884 102.283 21.4155ZM102.502 21.3229C102.731 21.3726 102.97 21.3554 103.189 21.2733C103.409 21.1912 103.6 21.0476 103.74 20.8598C103.879 20.6767 103.966 20.4595 103.991 20.2312C104.016 20.0028 103.979 19.7719 103.883 19.563C103.659 19.5201 103.428 19.5407 103.215 19.6225C103.002 19.7044 102.817 19.8442 102.679 20.0261C102.535 20.206 102.442 20.4216 102.411 20.65C102.38 20.8784 102.412 21.111 102.502 21.3229ZM103.361 24.0596C103.277 23.7965 103.135 23.5557 102.946 23.3546C102.756 23.1535 102.524 22.9974 102.267 22.8976C102.034 22.7837 101.776 22.7323 101.518 22.7486C101.259 22.7648 101.009 22.8481 100.793 22.9902C100.877 23.2532 101.019 23.4941 101.209 23.6952C101.398 23.8962 101.63 24.0524 101.888 24.1522C102.121 24.2637 102.379 24.3137 102.637 24.2975C102.894 24.2813 103.144 24.1994 103.361 24.0596ZM103.353 22.4344C103.262 22.6781 103.234 22.9406 103.271 23.198C103.308 23.4554 103.408 23.6995 103.563 23.908C103.811 23.8923 104.048 23.804 104.246 23.6543C104.444 23.5045 104.593 23.2999 104.675 23.066C104.769 22.8234 104.8 22.5608 104.765 22.303C104.729 22.0452 104.629 21.8006 104.473 21.5924C104.224 21.6076 103.985 21.6955 103.786 21.8452C103.587 21.9949 103.437 22.1998 103.353 22.4344ZM103.74 25.1374C103.497 25.0552 103.236 25.0392 102.985 25.091C102.733 25.1428 102.5 25.2605 102.309 25.4321C102.427 25.6832 102.599 25.9048 102.813 26.081C103.027 26.2573 103.278 26.3836 103.547 26.451C103.788 26.5354 104.047 26.5534 104.297 26.503C104.548 26.4526 104.78 26.3358 104.97 26.1647C104.854 25.9131 104.683 25.6904 104.471 25.5127C104.258 25.335 104.008 25.2068 103.74 25.1374ZM105.113 25.9879C105.353 25.9365 105.573 25.8157 105.745 25.6406C105.917 25.4655 106.034 25.2437 106.081 25.0027C106.139 24.7454 106.132 24.4777 106.062 24.2236C105.991 23.9694 105.859 23.7366 105.677 23.5459C105.434 23.5965 105.212 23.7178 105.038 23.8947C104.864 24.0715 104.747 24.296 104.7 24.5396C104.652 24.7964 104.664 25.061 104.736 25.3124C104.807 25.5638 104.936 25.7951 105.113 25.9879ZM107.403 27.8489C107.204 27.6259 106.956 27.4522 106.678 27.3411C106.401 27.2301 106.101 27.1848 105.803 27.2089C105.534 27.2137 105.272 27.2956 105.048 27.4448C104.824 27.5941 104.648 27.8045 104.54 28.0509C104.739 28.2754 104.986 28.4508 105.264 28.5633C105.542 28.6758 105.841 28.7223 106.14 28.6993C106.41 28.6948 106.673 28.6121 106.898 28.4612C107.122 28.3102 107.297 28.0975 107.403 27.8489ZM107.496 27.5878C107.717 27.4229 107.886 27.198 107.983 26.9397C108.08 26.6815 108.101 26.4008 108.043 26.1311C108.005 25.8351 107.902 25.5514 107.74 25.3008C107.578 25.0501 107.363 24.8389 107.108 24.6827C106.889 24.849 106.721 25.074 106.624 25.3319C106.527 25.5897 106.505 25.8698 106.561 26.1395C106.599 26.4354 106.702 26.7191 106.864 26.9698C107.026 27.2204 107.242 27.4316 107.496 27.5878ZM107.108 29.5919C107.327 29.8382 107.6 30.0309 107.905 30.155C108.21 30.2791 108.54 30.3314 108.868 30.3077C109.168 30.2979 109.458 30.2012 109.703 30.0292C109.948 29.8572 110.138 29.6175 110.249 29.3393C110.033 29.0926 109.762 28.9001 109.458 28.7772C109.154 28.6544 108.825 28.6046 108.498 28.632C108.198 28.6394 107.907 28.7341 107.66 28.9047C107.413 29.0752 107.221 29.314 107.108 29.5919ZM109.879 25.8532C109.636 26.0341 109.45 26.2813 109.344 26.565C109.238 26.8488 109.216 27.1572 109.281 27.4531C109.328 27.7827 109.45 28.0972 109.637 28.3729C109.823 28.6486 110.07 28.8783 110.359 29.0446C110.599 28.859 110.782 28.61 110.887 28.3257C110.993 28.0415 111.017 27.7334 110.957 27.4362C110.911 27.1074 110.789 26.7935 110.602 26.519C110.415 26.2445 110.168 26.0167 109.879 25.8532Z" fill="#E3B742"/>
<path d="M112.472 15.5714L111.319 13.2305L110.165 15.5714L107.588 15.9419L109.458 17.7607L109.012 20.329L111.319 19.1164L113.626 20.329L113.18 17.7607L115.049 15.9419L112.472 15.5714Z" fill="#E3B742"/>
<path d="M118.148 16.9609C118.148 15.6103 117.747 14.2899 116.997 13.1669C116.247 12.0439 115.18 11.1685 113.932 10.6517C112.684 10.1348 111.311 9.99956 109.986 10.2631C108.662 10.5266 107.445 11.177 106.49 12.132C105.535 13.0871 104.884 14.3039 104.621 15.6286C104.357 16.9533 104.493 18.3264 105.009 19.5743C105.526 20.8222 106.402 21.8887 107.525 22.6391C108.648 23.3895 109.968 23.79 111.319 23.79C113.129 23.7878 114.865 23.0676 116.145 21.7874C117.425 20.5071 118.146 18.7714 118.148 16.9609ZM111.319 22.1059C110.301 22.1059 109.306 21.8041 108.46 21.2388C107.614 20.6735 106.955 19.8699 106.565 18.9298C106.176 17.9897 106.074 16.9552 106.273 15.9572C106.471 14.9592 106.961 14.0424 107.681 13.3229C108.4 12.6033 109.317 12.1133 110.315 11.9148C111.313 11.7163 112.348 11.8182 113.288 12.2076C114.228 12.597 115.031 13.2564 115.597 14.1025C116.162 14.9486 116.464 15.9433 116.464 16.9609C116.461 18.3248 115.919 19.6321 114.954 20.5965C113.99 21.5609 112.683 22.1037 111.319 22.1059Z" fill="#E3B742"/>
<path d="M145.05 18.1824C145.156 18.087 145.238 17.9673 145.288 17.8335C145.339 17.6997 145.356 17.5558 145.338 17.414C145.325 17.284 145.273 17.1609 145.189 17.0603C145.106 16.9598 144.994 16.8862 144.869 16.8489C144.764 16.9443 144.684 17.0632 144.634 17.1957C144.584 17.3283 144.566 17.4709 144.581 17.6117C144.594 17.7425 144.646 17.8664 144.729 17.9679C144.813 18.0695 144.924 18.1441 145.05 18.1824ZM145.395 18.4932C145.279 18.5895 145.189 18.7122 145.131 18.8509C145.073 18.9895 145.049 19.1401 145.061 19.2899C145.208 19.3027 145.355 19.2844 145.494 19.2361C145.633 19.1879 145.76 19.1107 145.866 19.0098C145.973 18.9089 146.057 18.7865 146.113 18.6507C146.169 18.5149 146.196 18.3688 146.191 18.222C146.047 18.2024 145.899 18.2168 145.761 18.2638C145.623 18.3109 145.497 18.3894 145.395 18.4932ZM144.92 19.2616C144.958 19.1265 144.957 18.9837 144.918 18.849C144.879 18.7143 144.803 18.5931 144.7 18.4988C144.596 18.4029 144.468 18.337 144.33 18.3081C144.191 18.2793 144.048 18.2885 143.914 18.335C143.875 18.4694 143.874 18.6123 143.912 18.7472C143.95 18.8822 144.025 19.0036 144.129 19.0978C144.234 19.1936 144.363 19.2595 144.502 19.2883C144.641 19.3171 144.786 19.3079 144.92 19.2616ZM144.926 20.2391C144.785 20.3279 144.667 20.4481 144.581 20.5902C144.494 20.7324 144.442 20.8927 144.428 21.0585C144.584 21.1073 144.749 21.1179 144.909 21.0894C145.069 21.0609 145.221 20.994 145.35 20.8946C145.489 20.8049 145.607 20.6845 145.693 20.5425C145.779 20.4005 145.832 20.2407 145.847 20.0753C145.692 20.025 145.526 20.0136 145.366 20.0422C145.205 20.0707 145.054 20.1384 144.926 20.2391ZM144.282 20.9963C144.346 20.8561 144.371 20.7012 144.354 20.548C144.337 20.3947 144.279 20.249 144.186 20.1261C144.093 20.0041 143.969 19.9102 143.826 19.8553C143.683 19.8004 143.528 19.7866 143.378 19.8154C143.31 19.9536 143.282 20.1074 143.294 20.2606C143.307 20.4137 143.361 20.5606 143.451 20.6855C143.545 20.8116 143.673 20.9079 143.821 20.963C143.968 21.0181 144.128 21.0297 144.282 20.9963ZM144.44 22.0529C144.267 22.1199 144.111 22.2247 143.984 22.3596C143.857 22.4945 143.762 22.6562 143.705 22.8327C143.851 22.9265 144.019 22.9814 144.192 22.9923C144.365 23.0032 144.538 22.9696 144.694 22.8948C144.867 22.8278 145.023 22.7231 145.15 22.5881C145.277 22.4532 145.372 22.2916 145.429 22.1151C145.283 22.0197 145.116 21.9639 144.942 21.953C144.769 21.9421 144.596 21.9765 144.44 22.0529ZM142.824 22.1772C142.879 22.3342 142.979 22.4715 143.112 22.572C143.244 22.6725 143.404 22.7317 143.57 22.7423C143.674 22.6023 143.741 22.4385 143.766 22.2658C143.791 22.0931 143.772 21.917 143.711 21.7535C143.655 21.596 143.554 21.4585 143.42 21.3581C143.286 21.2576 143.126 21.1986 142.959 21.1884C142.855 21.3282 142.787 21.4923 142.764 21.6653C142.74 21.8383 142.761 22.0145 142.824 22.1772ZM143.451 23.5559C143.271 23.6025 143.104 23.6885 142.961 23.8077C142.818 23.927 142.704 24.0764 142.626 24.2453C142.753 24.36 142.909 24.4384 143.077 24.4722C143.245 24.506 143.419 24.494 143.581 24.4374C143.761 24.3922 143.93 24.3074 144.073 24.1891C144.217 24.0709 144.332 23.9221 144.412 23.7537C144.283 23.6385 144.127 23.5595 143.958 23.5248C143.789 23.49 143.614 23.5008 143.451 23.5559ZM142.151 22.488C142.029 22.616 141.94 22.7722 141.893 22.9427C141.846 23.1133 141.841 23.2929 141.88 23.4655C141.912 23.6272 141.99 23.776 142.106 23.8936C142.221 24.0111 142.369 24.0921 142.53 24.1266C142.648 23.9972 142.735 23.842 142.783 23.6734C142.831 23.5047 142.839 23.3271 142.807 23.1548C142.776 22.9913 142.697 22.8407 142.58 22.722C142.464 22.6034 142.314 22.5219 142.151 22.488ZM142.067 24.9459C141.867 24.9298 141.666 24.9602 141.479 25.0347C141.293 25.1092 141.127 25.2258 140.993 25.3754C141.059 25.5486 141.174 25.6984 141.325 25.806C141.476 25.9136 141.655 25.9742 141.841 25.9799C142.041 25.9954 142.242 25.9641 142.429 25.8886C142.615 25.8131 142.781 25.6955 142.914 25.5449C142.847 25.3731 142.731 25.2249 142.58 25.1184C142.43 25.012 142.251 24.952 142.067 24.9459ZM140.564 24.2227C140.525 24.4037 140.539 24.592 140.604 24.7653C140.669 24.9386 140.782 25.0896 140.931 25.2002C141.107 25.0985 141.257 24.9582 141.371 24.7898C141.484 24.6214 141.558 24.4294 141.586 24.2283C141.624 24.0473 141.609 23.8594 141.544 23.6864C141.479 23.5134 141.366 23.3624 141.219 23.2508C141.043 23.3525 140.893 23.4928 140.779 23.6612C140.666 23.8296 140.592 24.0216 140.564 24.2227ZM140.259 25.8952C140.039 25.8768 139.819 25.9102 139.614 25.9927C139.41 26.0751 139.228 26.2043 139.083 26.3698C139.158 26.5565 139.285 26.7174 139.45 26.8328C139.614 26.9482 139.809 27.0131 140.01 27.0196C140.23 27.0362 140.451 27.0021 140.656 26.9198C140.86 26.8375 141.043 26.7092 141.191 26.545C141.116 26.3575 140.988 26.196 140.822 26.0805C140.656 25.9651 140.46 25.9006 140.259 25.8952ZM139.733 25.1098C139.777 24.9112 139.762 24.7043 139.691 24.5139C139.619 24.3235 139.495 24.1576 139.332 24.0362C139.138 24.1459 138.972 24.2988 138.846 24.483C138.721 24.6672 138.64 24.8778 138.609 25.0985C138.568 25.2979 138.584 25.5046 138.655 25.6954C138.726 25.8861 138.849 26.0532 139.01 26.1777C139.203 26.0661 139.369 25.912 139.494 25.727C139.62 25.542 139.701 25.331 139.733 25.1098ZM132.15 17.6117C132.167 17.4699 132.149 17.3263 132.099 17.1927C132.049 17.059 131.968 16.9393 131.862 16.8433C131.737 16.8805 131.625 16.9541 131.542 17.0547C131.458 17.1553 131.407 17.2783 131.393 17.4083C131.376 17.5501 131.393 17.6941 131.443 17.8279C131.493 17.9617 131.575 18.0813 131.681 18.1768C131.806 18.1388 131.917 18.0651 132 17.9646C132.084 17.8642 132.136 17.7415 132.15 17.6117ZM131.67 19.2899C131.682 19.1401 131.658 18.9895 131.6 18.8509C131.542 18.7122 131.452 18.5895 131.337 18.4932C131.231 18.3861 131.102 18.3056 130.96 18.2584C130.817 18.2112 130.666 18.1987 130.517 18.222C130.505 18.3718 130.529 18.5223 130.587 18.661C130.645 18.7996 130.735 18.9223 130.851 19.0187C130.955 19.1266 131.084 19.2076 131.227 19.2548C131.37 19.302 131.522 19.314 131.67 19.2899ZM131.811 19.2616C131.946 19.3079 132.09 19.3171 132.229 19.2883C132.368 19.2595 132.497 19.1936 132.602 19.0978C132.706 19.0036 132.781 18.8822 132.819 18.7472C132.857 18.6123 132.856 18.4694 132.817 18.335C132.683 18.2885 132.54 18.2793 132.402 18.3081C132.263 18.337 132.135 18.4029 132.032 18.4988C131.928 18.5931 131.852 18.7143 131.813 18.849C131.774 18.9837 131.774 19.1265 131.811 19.2616ZM132.303 21.0585C132.289 20.8927 132.237 20.7324 132.151 20.5902C132.064 20.4481 131.946 20.3279 131.806 20.2391C131.677 20.1393 131.525 20.0727 131.365 20.0451C131.204 20.0175 131.039 20.0298 130.885 20.0809C130.9 20.2454 130.953 20.404 131.039 20.545C131.126 20.6859 131.243 20.8055 131.382 20.8946C131.511 20.994 131.662 21.0609 131.822 21.0894C131.983 21.1179 132.147 21.1073 132.303 21.0585ZM132.45 20.9963C132.603 21.0297 132.763 21.0181 132.911 20.963C133.058 20.9079 133.186 20.8116 133.28 20.6855C133.373 20.5627 133.431 20.4169 133.448 20.2637C133.465 20.1105 133.44 19.9556 133.376 19.8154C133.226 19.7866 133.071 19.8004 132.928 19.8553C132.785 19.9102 132.661 20.0041 132.568 20.1261C132.472 20.2468 132.409 20.3915 132.388 20.5448C132.368 20.6981 132.389 20.8541 132.45 20.9963ZM133.026 22.8327C132.969 22.6562 132.874 22.4945 132.747 22.3596C132.62 22.2247 132.464 22.1199 132.291 22.0529C132.135 21.9765 131.962 21.9421 131.789 21.953C131.615 21.9639 131.448 22.0197 131.303 22.1151C131.359 22.2916 131.455 22.4532 131.582 22.5881C131.709 22.7231 131.864 22.8278 132.037 22.8948C132.194 22.9696 132.367 23.0032 132.54 22.9923C132.713 22.9814 132.88 22.9265 133.026 22.8327ZM133.02 21.7422C132.96 21.9057 132.941 22.0818 132.965 22.2545C132.99 22.4272 133.057 22.591 133.162 22.731C133.328 22.7204 133.487 22.6612 133.62 22.5607C133.752 22.4602 133.852 22.3229 133.907 22.1659C133.971 22.0032 133.991 21.827 133.968 21.654C133.944 21.481 133.877 21.3169 133.772 21.1771C133.605 21.1873 133.445 21.2463 133.311 21.3468C133.178 21.4472 133.076 21.5847 133.02 21.7422ZM133.28 23.5559C133.117 23.5008 132.942 23.49 132.773 23.5248C132.604 23.5595 132.448 23.6385 132.32 23.7537C132.399 23.9221 132.514 24.0709 132.658 24.1891C132.802 24.3074 132.97 24.3922 133.15 24.4374C133.312 24.494 133.486 24.506 133.654 24.4722C133.822 24.4384 133.978 24.36 134.105 24.2453C134.027 24.0764 133.913 23.927 133.77 23.8077C133.628 23.6885 133.46 23.6025 133.28 23.5559ZM134.201 24.1266C134.362 24.0921 134.51 24.0111 134.625 23.8936C134.741 23.776 134.819 23.6272 134.851 23.4655C134.89 23.2929 134.886 23.1133 134.838 22.9427C134.791 22.7722 134.702 22.616 134.58 22.488C134.417 22.5219 134.268 22.6034 134.151 22.722C134.034 22.8407 133.956 22.9913 133.924 23.1548C133.892 23.3271 133.9 23.5047 133.948 23.6734C133.996 23.842 134.083 23.9972 134.201 24.1266ZM135.738 25.3754C135.605 25.2258 135.438 25.1092 135.252 25.0347C135.066 24.9602 134.865 24.9298 134.665 24.9459C134.484 24.9491 134.308 25.0041 134.158 25.1043C134.008 25.2044 133.889 25.3456 133.817 25.511C133.95 25.6616 134.116 25.7792 134.303 25.8547C134.489 25.9302 134.69 25.9615 134.891 25.946C135.072 25.943 135.249 25.8875 135.399 25.7862C135.549 25.685 135.667 25.5422 135.738 25.3754ZM135.8 25.2002C135.949 25.0896 136.062 24.9386 136.127 24.7653C136.193 24.592 136.206 24.4037 136.168 24.2227C136.142 24.0241 136.073 23.8337 135.964 23.6655C135.856 23.4973 135.711 23.3556 135.54 23.2508C135.393 23.3624 135.28 23.5134 135.215 23.6864C135.15 23.8594 135.136 24.0473 135.173 24.2283C135.198 24.4269 135.268 24.6173 135.376 24.7855C135.485 24.9537 135.63 25.0954 135.8 25.2002ZM135.54 26.545C135.687 26.7103 135.87 26.8396 136.075 26.9228C136.28 27.0061 136.501 27.0412 136.721 27.0253C136.922 27.0188 137.117 26.9538 137.281 26.8384C137.446 26.723 137.573 26.5621 137.648 26.3755C137.503 26.2099 137.321 26.0807 137.117 25.9983C136.913 25.9159 136.692 25.8825 136.473 25.9008C136.272 25.9058 136.076 25.9694 135.91 26.0838C135.745 26.1982 135.616 26.3585 135.54 26.545ZM137.399 24.0362C137.236 24.1576 137.112 24.3235 137.041 24.5139C136.969 24.7043 136.955 24.9112 136.998 25.1098C137.03 25.331 137.112 25.542 137.237 25.727C137.362 25.912 137.528 26.0661 137.721 26.1777C137.882 26.0532 138.005 25.8861 138.076 25.6954C138.147 25.5046 138.163 25.2979 138.123 25.0985C138.092 24.8778 138.01 24.6672 137.885 24.483C137.76 24.2988 137.593 24.1459 137.399 24.0362Z" fill="#E3B742"/>
<path d="M139.14 17.1372L138.366 15.5664L137.592 17.1372L135.862 17.3858L137.117 18.6063L136.817 20.3297L138.366 19.516L139.914 20.3297L139.614 18.6063L140.869 17.3858L139.14 17.1372Z" fill="#E3B742"/>
<path d="M142.948 18.0693C142.948 17.163 142.679 16.277 142.176 15.5234C141.672 14.7698 140.957 14.1825 140.119 13.8356C139.282 13.4888 138.361 13.3981 137.472 13.5749C136.583 13.7517 135.766 14.1881 135.125 14.829C134.484 15.4699 134.048 16.2864 133.871 17.1753C133.694 18.0642 133.785 18.9856 134.132 19.8229C134.479 20.6603 135.066 21.3759 135.82 21.8795C136.573 22.383 137.459 22.6518 138.366 22.6518C139.58 22.6503 140.745 22.167 141.604 21.3079C142.463 20.4489 142.947 19.2842 142.948 18.0693ZM138.366 21.5217C137.683 21.5217 137.015 21.3192 136.448 20.9398C135.88 20.5605 135.437 20.0213 135.176 19.3905C134.915 18.7596 134.846 18.0655 134.98 17.3958C135.113 16.7261 135.442 16.1109 135.924 15.6281C136.407 15.1453 137.022 14.8164 137.692 14.6832C138.362 14.55 139.056 14.6184 139.687 14.8797C140.318 15.141 140.857 15.5835 141.236 16.1512C141.616 16.719 141.818 17.3865 141.818 18.0693C141.817 18.9845 141.452 19.8617 140.805 20.5088C140.158 21.156 139.281 21.5202 138.366 21.5217Z" fill="#E3B742"/>
</svg>
