<svg width="150" height="42" viewBox="0 0 150 42" fill="none" xmlns="http://www.w3.org/2000/svg">
<path d="M11.5344 25.0112L7.09335 27.7238L8.30081 22.6619L4.34863 19.2764L9.53593 18.8606L11.5344 14.0557L13.5328 18.8606L18.7202 19.2764L14.768 22.6619L15.9755 27.7238L11.5344 25.0112Z" fill="#E3B742"/>
<path d="M38.7347 26.9001L32.0731 30.969L33.8843 23.3761L27.9561 18.2979L35.737 17.6741L38.7347 10.4668L41.7324 17.6741L49.5134 18.2979L43.5851 23.3761L45.3963 30.969L38.7347 26.9001Z" fill="#E3B742"/>
<path d="M75.0014 28.789L66.1193 34.2142L68.5342 24.0904L60.6299 17.3195L71.0045 16.4877L75.0014 6.87793L78.9983 16.4877L89.373 17.3195L81.4687 24.0904L83.8836 34.2142L75.0014 28.789Z" fill="#E3B742"/>
<path d="M111.268 26.9001L104.606 30.969L106.418 23.3761L100.489 18.2979L108.27 17.6741L111.268 10.4668L114.266 17.6741L122.047 18.2979L116.118 23.3761L117.93 30.969L111.268 26.9001Z" fill="#E3B742"/>
<path d="M138.468 25.0112L134.027 27.7238L135.234 22.6619L131.282 19.2764L136.47 18.8606L138.468 14.0557L140.466 18.8606L145.654 19.2764L141.702 22.6619L142.909 27.7238L138.468 25.0112Z" fill="#E3B742"/>
</svg>
