<svg width="22" height="28" viewBox="0 0 22 28" fill="none" xmlns="http://www.w3.org/2000/svg">
<path d="M11.0002 13.9998C9.5335 13.9998 8.3335 12.7998 8.3335 11.3332C8.3335 9.8665 9.5335 8.6665 11.0002 8.6665C12.4668 8.6665 13.6668 9.8665 13.6668 11.3332C13.6668 12.7998 12.4668 13.9998 11.0002 13.9998ZM19.0002 11.5998C19.0002 6.75984 15.4668 3.33317 11.0002 3.33317C6.5335 3.33317 3.00016 6.75984 3.00016 11.5998C3.00016 14.7198 5.60016 18.8532 11.0002 23.7865C16.4002 18.8532 19.0002 14.7198 19.0002 11.5998ZM11.0002 0.666504C16.6002 0.666504 21.6668 4.95984 21.6668 11.5998C21.6668 16.0265 18.1068 21.2665 11.0002 27.3332C3.8935 21.2665 0.333496 16.0265 0.333496 11.5998C0.333496 4.95984 5.40016 0.666504 11.0002 0.666504Z" fill="#5A4635"/>
</svg>
